<?xml version="1.0" standalone="no"?>
<!DOCTYPE svg PUBLIC "-//W3C//DTD SVG 20010904//EN"
 "http://www.w3.org/TR/2001/REC-SVG-20010904/DTD/svg10.dtd">
<svg version="1.0" xmlns="http://www.w3.org/2000/svg"
 width="150.000000pt" height="150.000000pt" viewBox="0 0 150.000000 150.000000"
 preserveAspectRatio="xMidYMid meet">
<metadata>
Created by potrace 1.14, written by Peter Selinger 2001-2017
</metadata>
<g transform="translate(0.000000,150.000000) scale(0.100000,-0.100000)"
fill="#000000" stroke="none">
<path d="M420 1213 c-53 -38 -410 -405 -416 -428 -16 -65 -1 -87 194 -283 223
-223 234 -232 281 -232 45 0 66 14 163 112 l77 78 73 -72 c106 -106 124 -118
174 -118 43 0 45 2 247 202 112 112 209 213 216 225 14 28 14 78 0 106 -22 40
-406 416 -433 423 -58 14 -91 -3 -186 -96 l-91 -90 -77 78 c-42 42 -88 85
-102 95 -31 22 -89 22 -120 0z"/>
</g>
</svg>
