<svg xmlns="http://www.w3.org/2000/svg" xmlns:xlink="http://www.w3.org/1999/xlink" viewBox="0 0 323.72 326.46"><defs><style>.cls-1{fill:#941e97;}.cls-2{isolation:isolate;}.cls-3,.cls-4,.cls-88{opacity:0.2;}.cls-3{fill:url(#linear-gradient);}.cls-104,.cls-123,.cls-137,.cls-5{opacity:0;}.cls-105,.cls-124,.cls-138,.cls-6{opacity:0.09;}.cls-106,.cls-125,.cls-139,.cls-7{opacity:0.18;}.cls-107,.cls-126,.cls-140,.cls-8{opacity:0.27;}.cls-108,.cls-127,.cls-141,.cls-9{opacity:0.36;}.cls-10,.cls-109,.cls-128,.cls-142{opacity:0.45;}.cls-11,.cls-110,.cls-129,.cls-143{opacity:0.55;}.cls-111,.cls-12,.cls-130,.cls-144{opacity:0.64;}.cls-112,.cls-13,.cls-131,.cls-145{opacity:0.73;}.cls-113,.cls-132,.cls-14,.cls-146{opacity:0.82;}.cls-114,.cls-133,.cls-147,.cls-15{opacity:0.91;}.cls-16{fill:url(#linear-gradient-2);}.cls-17{fill:url(#linear-gradient-3);}.cls-18{opacity:0.82;fill:url(#linear-gradient-4);}.cls-103,.cls-122,.cls-151,.cls-155,.cls-162,.cls-18,.cls-22,.cls-68,.cls-88,.cls-94,.cls-95{mix-blend-mode:multiply;}.cls-102,.cls-19,.cls-24{opacity:0.6;}.cls-19,.cls-24,.cls-56,.cls-57,.cls-58,.cls-59,.cls-60,.cls-61,.cls-62,.cls-63,.cls-64,.cls-65,.cls-66,.cls-91{mix-blend-mode:screen;}.cls-19{fill:url(#radial-gradient);}.cls-20{fill:url(#linear-gradient-5);}.cls-21{fill:url(#linear-gradient-6);}.cls-22{fill:#bcbec0;}.cls-23{fill:url(#linear-gradient-7);}.cls-24{fill:url(#radial-gradient-2);}.cls-25{fill:#dfcced;}.cls-26{fill:url(#linear-gradient-8);}.cls-27{fill:url(#linear-gradient-9);}.cls-28{fill:#f9fafa;}.cls-29{fill:url(#New_Gradient_Swatch_copy_9);}.cls-30{fill:url(#New_Gradient_Swatch_copy_26);}.cls-31{fill:#e6e7e8;}.cls-32{fill:url(#New_Gradient_Swatch_copy_26-2);}.cls-33{fill:url(#New_Gradient_Swatch_copy_26-3);}.cls-34{fill:url(#New_Gradient_Swatch_copy_7);}.cls-35{fill:url(#New_Gradient_Swatch_copy_26-4);}.cls-36{fill:url(#New_Gradient_Swatch_copy_26-5);}.cls-116,.cls-135,.cls-149,.cls-37{opacity:0.9;}.cls-37{fill:url(#New_Gradient_Swatch_copy_9-2);}.cls-38{fill:url(#New_Gradient_Swatch_copy_26-6);}.cls-39{fill:url(#New_Gradient_Swatch_copy_13);}.cls-40{fill:url(#New_Gradient_Swatch_copy_26-7);}.cls-41{fill:url(#New_Gradient_Swatch_copy_26-8);}.cls-42{fill:url(#New_Gradient_Swatch_copy_26-9);}.cls-43{fill:url(#New_Gradient_Swatch_copy_26-10);}.cls-44{clip-path:url(#clip-path);}.cls-45{clip-path:url(#clip-path-2);}.cls-46{clip-path:url(#clip-path-3);}.cls-47{clip-path:url(#clip-path-4);}.cls-48{clip-path:url(#clip-path-5);}.cls-49{clip-path:url(#clip-path-6);}.cls-50{fill:url(#linear-gradient-10);}.cls-51{fill:url(#linear-gradient-11);}.cls-52{fill:url(#linear-gradient-12);}.cls-53{fill:url(#linear-gradient-13);}.cls-54{fill:url(#linear-gradient-14);}.cls-55{fill:url(#linear-gradient-15);}.cls-56{fill:url(#radial-gradient-3);}.cls-57{fill:url(#radial-gradient-4);}.cls-58{fill:url(#radial-gradient-5);}.cls-59{fill:url(#radial-gradient-6);}.cls-60{fill:url(#radial-gradient-7);}.cls-61{fill:url(#radial-gradient-8);}.cls-62{fill:url(#radial-gradient-9);}.cls-63{fill:url(#radial-gradient-10);}.cls-64{fill:url(#radial-gradient-11);}.cls-65{fill:url(#radial-gradient-12);}.cls-66{fill:url(#radial-gradient-13);}.cls-100,.cls-101,.cls-102,.cls-117,.cls-136,.cls-150,.cls-154,.cls-168,.cls-67,.cls-70,.cls-97,.cls-99{mix-blend-mode:color-dodge;}.cls-67{fill:url(#radial-gradient-14);}.cls-68{fill:#d1d3d4;}.cls-69{fill:url(#New_Gradient_Swatch_copy_9-3);}.cls-71{fill:url(#Radial_Gradient_1);}.cls-72{fill:url(#Radial_Gradient_1-2);}.cls-73{fill:url(#Radial_Gradient_1-3);}.cls-74{fill:url(#Radial_Gradient_1-4);}.cls-75{fill:url(#Radial_Gradient_1-5);}.cls-76{fill:url(#New_Gradient_Swatch_copy_7-2);}.cls-77{fill:url(#Radial_Gradient_1-6);}.cls-78{fill:url(#Radial_Gradient_1-7);}.cls-79{fill:url(#Radial_Gradient_1-8);}.cls-80{fill:url(#Radial_Gradient_1-9);}.cls-81{fill:url(#Radial_Gradient_1-10);}.cls-82{fill:url(#New_Gradient_Swatch_copy_13-2);}.cls-83{fill:url(#Radial_Gradient_1-11);}.cls-84{fill:url(#Radial_Gradient_1-12);}.cls-85{fill:url(#Radial_Gradient_1-13);}.cls-86{fill:url(#Radial_Gradient_1-14);}.cls-87{fill:url(#Radial_Gradient_1-15);}.cls-88{fill:#231f20;}.cls-89{fill:url(#linear-gradient-16);}.cls-90{fill:url(#linear-gradient-17);}.cls-91{opacity:0.1;fill:url(#Linear_Gradient_1);}.cls-92,.cls-93{fill:#6f428a;}.cls-119,.cls-120,.cls-121,.cls-122,.cls-92{opacity:0.3;}.cls-103,.cls-151,.cls-155,.cls-162,.cls-93{opacity:0.5;}.cls-155,.cls-94{fill:#b086cc;}.cls-96{fill:#8770b8;}.cls-97{opacity:0.4;}.cls-98{fill:#7c1dc9;}.cls-99{opacity:0.15;}.cls-100{opacity:0.25;}.cls-101{opacity:0.8;}.cls-104,.cls-105,.cls-106,.cls-107,.cls-108,.cls-109,.cls-110,.cls-111,.cls-112,.cls-113,.cls-114,.cls-115{fill:#afb6e5;}.cls-116{fill:url(#New_Gradient_Swatch_copy_9-4);}.cls-117{fill:url(#radial-gradient-15);}.cls-118{fill:#fff;}.cls-119{fill:url(#New_Gradient_Swatch_copy_26-11);}.cls-120{fill:url(#New_Gradient_Swatch_copy_26-12);}.cls-121{fill:url(#New_Gradient_Swatch_copy_26-13);}.cls-123{fill:url(#linear-gradient-18);}.cls-124{fill:url(#linear-gradient-19);}.cls-125{fill:url(#linear-gradient-20);}.cls-126{fill:url(#linear-gradient-21);}.cls-127{fill:url(#linear-gradient-22);}.cls-128{fill:url(#linear-gradient-23);}.cls-129{fill:url(#linear-gradient-24);}.cls-130{fill:url(#linear-gradient-25);}.cls-131{fill:url(#linear-gradient-26);}.cls-132{fill:url(#linear-gradient-27);}.cls-133{fill:url(#linear-gradient-28);}.cls-134{fill:url(#linear-gradient-29);}.cls-135{fill:url(#New_Gradient_Swatch_copy_9-5);}.cls-136{fill:url(#radial-gradient-16);}.cls-137{fill:url(#linear-gradient-30);}.cls-138{fill:url(#linear-gradient-31);}.cls-139{fill:url(#linear-gradient-32);}.cls-140{fill:url(#linear-gradient-33);}.cls-141{fill:url(#linear-gradient-34);}.cls-142{fill:url(#linear-gradient-35);}.cls-143{fill:url(#linear-gradient-36);}.cls-144{fill:url(#linear-gradient-37);}.cls-145{fill:url(#linear-gradient-38);}.cls-146{fill:url(#linear-gradient-39);}.cls-147{fill:url(#linear-gradient-40);}.cls-148{fill:url(#linear-gradient-41);}.cls-149{fill:url(#New_Gradient_Swatch_copy_9-6);}.cls-150{fill:url(#radial-gradient-17);}.cls-151{fill:#8969c3;}.cls-152{fill:url(#linear-gradient-42);}.cls-153{fill:url(#New_Gradient_Swatch_copy_26-14);}.cls-154{fill:url(#radial-gradient-18);}.cls-156{fill:#ffd4c0;}.cls-157{fill:url(#New_Gradient_Swatch_copy_9-7);}.cls-158{fill:url(#New_Gradient_Swatch_copy_9-8);}.cls-159{fill:url(#New_Gradient_Swatch_copy_9-9);}.cls-160{fill:url(#linear-gradient-43);}.cls-161{fill:url(#linear-gradient-44);}.cls-162{fill:url(#radial-gradient-19);}.cls-163{fill:url(#New_Gradient_Swatch_copy_9-10);}.cls-164{fill:url(#New_Gradient_Swatch_copy_9-11);}.cls-165{fill:url(#New_Gradient_Swatch_copy_9-12);}.cls-166{fill:url(#linear-gradient-45);}.cls-167{fill:url(#New_Gradient_Swatch_copy_26-15);}.cls-168{fill:url(#radial-gradient-20);}</style><linearGradient id="linear-gradient" x1="304.14" y1="334.1" x2="443.17" y2="334.1" gradientUnits="userSpaceOnUse"><stop offset="0.06" stop-color="#200041"/><stop offset="0.26" stop-color="#210243"/><stop offset="0.36" stop-color="#25084b"/><stop offset="0.43" stop-color="#2c1358"/><stop offset="0.47" stop-color="#311b61"/><stop offset="0.48" stop-color="#351f65"/><stop offset="0.5" stop-color="#422c73"/><stop offset="0.51" stop-color="#584188"/><stop offset="0.52" stop-color="#765fa7"/><stop offset="0.53" stop-color="#8770b8"/><stop offset="0.54" stop-color="#7e67ae"/><stop offset="0.56" stop-color="#5c468d"/><stop offset="0.59" stop-color="#442e75"/><stop offset="0.61" stop-color="#362066"/><stop offset="0.63" stop-color="#311b61"/><stop offset="0.67" stop-color="#2a1155"/><stop offset="0.75" stop-color="#230446"/><stop offset="0.81" stop-color="#200041"/><stop offset="1" stop-color="#200041"/></linearGradient><linearGradient id="linear-gradient-2" x1="304.14" y1="312.9" x2="443.17" y2="312.9" xlink:href="#linear-gradient"/><linearGradient id="linear-gradient-3" x1="341.34" y1="321.84" x2="404.36" y2="286.97" gradientUnits="userSpaceOnUse"><stop offset="0" stop-color="#311b61"/><stop offset="0.2" stop-color="#290f52"/><stop offset="0.49" stop-color="#200041"/><stop offset="1" stop-color="#0f001f"/></linearGradient><linearGradient id="linear-gradient-4" x1="374.77" y1="305.35" x2="387.14" y2="284.61" gradientUnits="userSpaceOnUse"><stop offset="0" stop-color="#fff"/><stop offset="1"/></linearGradient><radialGradient id="radial-gradient" cx="375.18" cy="333.54" r="49.46" gradientUnits="userSpaceOnUse"><stop offset="0" stop-color="#af8afc"/><stop offset="1" stop-color="#10054d"/></radialGradient><linearGradient id="linear-gradient-5" x1="476.79" y1="346.32" x2="264.04" y2="51.92" xlink:href="#linear-gradient-3"/><linearGradient id="linear-gradient-6" x1="292.81" y1="81.24" x2="473.82" y2="353.43" gradientUnits="userSpaceOnUse"><stop offset="0.01" stop-color="#9f19ab"/><stop offset="0.43" stop-color="#5f27bd"/><stop offset="0.9" stop-color="#3d065f"/></linearGradient><linearGradient id="linear-gradient-7" x1="522" y1="352.72" x2="354.53" y2="85.13" xlink:href="#linear-gradient"/><radialGradient id="radial-gradient-2" cx="474.49" cy="200.33" r="28.5" xlink:href="#radial-gradient"/><linearGradient id="linear-gradient-8" x1="326.98" y1="265.72" x2="-48.86" y2="-60.09" gradientUnits="userSpaceOnUse"><stop offset="0" stop-color="#9f79c8"/><stop offset="0.14" stop-color="#a580cb"/><stop offset="0.33" stop-color="#b492d3"/><stop offset="0.55" stop-color="#cdb0e1"/><stop offset="0.58" stop-color="#d1b4e3"/><stop offset="0.76" stop-color="#dbc4e9"/><stop offset="1" stop-color="#ebdef3"/></linearGradient><linearGradient id="linear-gradient-9" x1="325.39" y1="266.43" x2="-50.45" y2="-59.38" xlink:href="#linear-gradient-8"/><linearGradient id="New_Gradient_Swatch_copy_9" x1="96.12" y1="76.78" x2="149.15" y2="41.78" gradientUnits="userSpaceOnUse"><stop offset="0.04" stop-color="#9f19ab"/><stop offset="0.24" stop-color="#ae25b1"/><stop offset="0.65" stop-color="#d744bf"/><stop offset="1" stop-color="#ff63ce"/></linearGradient><linearGradient id="New_Gradient_Swatch_copy_26" x1="41.45" y1="167.63" x2="242.71" y2="58.31" gradientUnits="userSpaceOnUse"><stop offset="0.03" stop-color="#7c1dc9"/><stop offset="0.21" stop-color="#6e41d2"/><stop offset="0.62" stop-color="#4c9be8"/><stop offset="1" stop-color="#2af6ff"/></linearGradient><linearGradient id="New_Gradient_Swatch_copy_26-2" x1="197.33" y1="137.76" x2="272.77" y2="96.78" xlink:href="#New_Gradient_Swatch_copy_26"/><linearGradient id="New_Gradient_Swatch_copy_26-3" x1="254.41" y1="266.47" x2="455.67" y2="157.15" xlink:href="#New_Gradient_Swatch_copy_26"/><linearGradient id="New_Gradient_Swatch_copy_7" x1="96.12" y1="113.19" x2="149.15" y2="78.19" gradientUnits="userSpaceOnUse"><stop offset="0.04" stop-color="#138bbd"/><stop offset="0.23" stop-color="#169ac7"/><stop offset="0.59" stop-color="#1fc3df"/><stop offset="1" stop-color="#2af6ff"/></linearGradient><linearGradient id="New_Gradient_Swatch_copy_26-4" x1="150.66" y1="144.73" x2="235.69" y2="98.54" xlink:href="#New_Gradient_Swatch_copy_26"/><linearGradient id="New_Gradient_Swatch_copy_26-5" x1="70.18" y1="220.52" x2="271.44" y2="111.2" xlink:href="#New_Gradient_Swatch_copy_26"/><linearGradient id="New_Gradient_Swatch_copy_9-2" x1="250.69" y1="259.64" x2="451.96" y2="150.32" xlink:href="#New_Gradient_Swatch_copy_9"/><linearGradient id="New_Gradient_Swatch_copy_26-6" x1="322.81" y1="223.15" x2="437.82" y2="160.68" xlink:href="#New_Gradient_Swatch_copy_26"/><linearGradient id="New_Gradient_Swatch_copy_13" x1="77.1" y1="183.81" x2="173.36" y2="120.28" gradientUnits="userSpaceOnUse"><stop offset="0.04" stop-color="#6b24d6"/><stop offset="0.29" stop-color="#7733dc"/><stop offset="0.79" stop-color="#975ced"/><stop offset="1" stop-color="#a56ef4"/></linearGradient><linearGradient id="New_Gradient_Swatch_copy_26-7" x1="76.85" y1="232.81" x2="221.04" y2="154.49" xlink:href="#New_Gradient_Swatch_copy_26"/><linearGradient id="New_Gradient_Swatch_copy_26-8" x1="174.78" y1="211.7" x2="266.18" y2="162.05" xlink:href="#New_Gradient_Swatch_copy_26"/><linearGradient id="New_Gradient_Swatch_copy_26-9" x1="85.75" y1="249.19" x2="287.01" y2="139.87" xlink:href="#New_Gradient_Swatch_copy_26"/><linearGradient id="New_Gradient_Swatch_copy_26-10" x1="206.05" y1="238.64" x2="279.13" y2="198.94" xlink:href="#New_Gradient_Swatch_copy_26"/><clipPath id="clip-path" transform="translate(-188.94 -54.62)"><polygon id="SVGID" class="cls-1" points="435.05 162.97 426.2 157.87 426.21 164.79 435.06 169.89 435.05 162.97"/></clipPath><clipPath id="clip-path-2" transform="translate(-188.94 -54.62)"><polygon id="SVGID-2" data-name="SVGID" class="cls-1" points="412.96 150.23 404.12 145.13 404.13 152.04 412.97 157.14 412.96 150.23"/></clipPath><clipPath id="clip-path-3" transform="translate(-188.94 -54.62)"><polygon id="SVGID-3" data-name="SVGID" class="cls-1" points="390.88 137.49 382.03 132.39 382.05 139.3 390.89 144.4 390.88 137.49"/></clipPath><clipPath id="clip-path-4" transform="translate(-188.94 -54.62)"><polygon id="SVGID-4" data-name="SVGID" class="cls-1" points="368.79 124.74 359.95 119.64 359.96 126.56 368.8 131.66 368.79 124.74"/></clipPath><clipPath id="clip-path-5" transform="translate(-188.94 -54.62)"><polygon id="SVGID-5" data-name="SVGID" class="cls-1" points="346.7 112 337.86 106.9 337.88 113.82 346.72 118.92 346.7 112"/></clipPath><clipPath id="clip-path-6" transform="translate(-188.94 -54.62)"><polygon id="SVGID-6" data-name="SVGID" class="cls-1" points="324.62 99.26 315.78 94.16 315.79 101.07 324.63 106.17 324.62 99.26"/></clipPath><linearGradient id="linear-gradient-10" x1="1407.33" y1="163.07" x2="1380.51" y2="137.54" gradientTransform="translate(-960.71 -9.02) rotate(0.21)" gradientUnits="userSpaceOnUse"><stop offset="0" stop-color="#7e7f90"/><stop offset="0.53" stop-color="#9d9eb3"/><stop offset="1" stop-color="#d4d1d8"/></linearGradient><linearGradient id="linear-gradient-11" x1="1385.16" y1="150.35" x2="1358.34" y2="124.82" xlink:href="#linear-gradient-10"/><linearGradient id="linear-gradient-12" x1="1362.99" y1="137.63" x2="1336.17" y2="112.11" xlink:href="#linear-gradient-10"/><linearGradient id="linear-gradient-13" x1="1340.82" y1="124.92" x2="1314" y2="99.39" xlink:href="#linear-gradient-10"/><linearGradient id="linear-gradient-14" x1="1318.66" y1="112.2" x2="1291.83" y2="86.67" xlink:href="#linear-gradient-10"/><linearGradient id="linear-gradient-15" x1="1296.49" y1="99.48" x2="1269.66" y2="73.95" xlink:href="#linear-gradient-10"/><radialGradient id="radial-gradient-3" cx="1397.7" cy="152.47" r="11.33" gradientTransform="translate(-960.71 -9.02) rotate(0.21)" gradientUnits="userSpaceOnUse"><stop offset="0" stop-color="#fff"/><stop offset="0.33" stop-color="#b7b6b6"/><stop offset="1"/></radialGradient><radialGradient id="radial-gradient-4" cx="1405.07" cy="153.85" r="6.26" xlink:href="#radial-gradient-3"/><radialGradient id="radial-gradient-5" cx="1375.35" cy="139.77" r="11.33" xlink:href="#radial-gradient-3"/><radialGradient id="radial-gradient-6" cx="1382.72" cy="141.14" r="6.26" xlink:href="#radial-gradient-3"/><radialGradient id="radial-gradient-7" cx="1353.35" cy="127.06" r="11.33" xlink:href="#radial-gradient-3"/><radialGradient id="radial-gradient-8" cx="1360.72" cy="128.44" r="6.26" xlink:href="#radial-gradient-3"/><radialGradient id="radial-gradient-9" cx="1331.12" cy="114.24" r="11.33" xlink:href="#radial-gradient-3"/><radialGradient id="radial-gradient-10" cx="1338.48" cy="115.62" r="6.26" xlink:href="#radial-gradient-3"/><radialGradient id="radial-gradient-11" cx="1308.76" cy="101.54" r="11.33" xlink:href="#radial-gradient-3"/><radialGradient id="radial-gradient-12" cx="1316.13" cy="102.91" r="6.26" xlink:href="#radial-gradient-3"/><radialGradient id="radial-gradient-13" cx="1286.77" cy="88.83" r="11.33" xlink:href="#radial-gradient-3"/><radialGradient id="radial-gradient-14" cx="9001.86" cy="9736.08" r="11.89" gradientTransform="matrix(0.4, -0.61, -0.6, -0.3, 2708.57, 8624.59)" gradientUnits="userSpaceOnUse"><stop offset="0" stop-color="#f49587"/><stop offset="0.12" stop-color="#bd7368"/><stop offset="0.24" stop-color="#8b554d"/><stop offset="0.36" stop-color="#603b35"/><stop offset="0.48" stop-color="#3e2622"/><stop offset="0.61" stop-color="#231513"/><stop offset="0.74" stop-color="#0f0908"/><stop offset="0.86" stop-color="#040202"/><stop offset="1"/></radialGradient><linearGradient id="New_Gradient_Swatch_copy_9-3" x1="349.03" y1="363.32" x2="372.76" y2="363.32" xlink:href="#New_Gradient_Swatch_copy_9"/><radialGradient id="Radial_Gradient_1" cx="361.53" cy="362.75" r="4.96" xlink:href="#linear-gradient-4"/><radialGradient id="Radial_Gradient_1-2" cx="359.11" cy="364.44" r="4" xlink:href="#linear-gradient-4"/><radialGradient id="Radial_Gradient_1-3" cx="360.89" cy="362.26" r="8.22" xlink:href="#linear-gradient-4"/><radialGradient id="Radial_Gradient_1-4" cx="365.62" cy="364.83" r="6" xlink:href="#linear-gradient-4"/><radialGradient id="Radial_Gradient_1-5" cx="359.04" cy="365.01" r="7.75" xlink:href="#linear-gradient-4"/><linearGradient id="New_Gradient_Swatch_copy_7-2" x1="5514.6" y1="371.84" x2="5538.33" y2="371.84" gradientTransform="matrix(-1, 0, 0, 1, 5914.59, 0)" xlink:href="#New_Gradient_Swatch_copy_7"/><radialGradient id="Radial_Gradient_1-6" cx="388.13" cy="370.8" r="8.22" xlink:href="#linear-gradient-4"/><radialGradient id="Radial_Gradient_1-7" cx="387.49" cy="371.31" r="4.95" xlink:href="#linear-gradient-4"/><radialGradient id="Radial_Gradient_1-8" cx="389.9" cy="372.97" r="4" xlink:href="#linear-gradient-4"/><radialGradient id="Radial_Gradient_1-9" cx="383.4" cy="373.36" r="6" xlink:href="#linear-gradient-4"/><radialGradient id="Radial_Gradient_1-10" cx="389.98" cy="373.53" r="7.75" xlink:href="#linear-gradient-4"/><linearGradient id="New_Gradient_Swatch_copy_13-2" x1="393.19" y1="373.6" x2="410.1" y2="373.6" xlink:href="#New_Gradient_Swatch_copy_13"/><radialGradient id="Radial_Gradient_1-11" cx="401.53" cy="374.19" r="2.35" xlink:href="#linear-gradient-4"/><radialGradient id="Radial_Gradient_1-12" cx="402.33" cy="373.67" r="4.73" xlink:href="#linear-gradient-4"/><radialGradient id="Radial_Gradient_1-13" cx="402.28" cy="371.92" r="6.61" xlink:href="#linear-gradient-4"/><radialGradient id="Radial_Gradient_1-14" cx="400.65" cy="373.66" r="4.15" xlink:href="#linear-gradient-4"/><radialGradient id="Radial_Gradient_1-15" cx="400.66" cy="374.8" r="6.71" xlink:href="#linear-gradient-4"/><linearGradient id="linear-gradient-16" x1="291.53" y1="321.34" x2="335.26" y2="246.85" gradientUnits="userSpaceOnUse"><stop offset="0.06" stop-color="#e6e7e8"/><stop offset="0.08" stop-color="#ecedee"/><stop offset="0.12" stop-color="#f3f4f5"/><stop offset="0.22" stop-color="#e6e7e8"/><stop offset="0.58" stop-color="#fafafb"/><stop offset="0.69" stop-color="#e6e7e8"/><stop offset="0.75" stop-color="#f0f1f2"/><stop offset="1" stop-color="#e6e7e8"/></linearGradient><linearGradient id="linear-gradient-17" x1="313.15" y1="267.64" x2="313.37" y2="267.26" gradientUnits="userSpaceOnUse"><stop offset="0.06" stop-color="#e6e7e8"/><stop offset="0.08" stop-color="#ecedee"/><stop offset="0.12" stop-color="#f3f4f5"/><stop offset="0.22" stop-color="#e6e7e8"/><stop offset="0.58" stop-color="#fafafb"/><stop offset="0.69" stop-color="#e6e7e8"/><stop offset="1" stop-color="#e6e7e8"/></linearGradient><linearGradient id="Linear_Gradient_1" x1="290.17" y1="302.86" x2="288.51" y2="323.05" xlink:href="#linear-gradient-4"/><linearGradient id="New_Gradient_Swatch_copy_9-4" x1="539.39" y1="193.63" x2="435.77" y2="287.74" xlink:href="#New_Gradient_Swatch_copy_9"/><radialGradient id="radial-gradient-15" cx="458.11" cy="231.52" r="47.64" gradientUnits="userSpaceOnUse"><stop offset="0" stop-color="#8c4c77"/><stop offset="0.14" stop-color="#874972"/><stop offset="0.32" stop-color="#774165"/><stop offset="0.51" stop-color="#5e3350"/><stop offset="0.72" stop-color="#3a2032"/><stop offset="0.94" stop-color="#0d070b"/><stop offset="1"/></radialGradient><linearGradient id="New_Gradient_Swatch_copy_26-11" x1="269.55" y1="225.93" x2="338.32" y2="190.15" xlink:href="#New_Gradient_Swatch_copy_26"/><linearGradient id="New_Gradient_Swatch_copy_26-12" x1="207.88" y1="222.32" x2="346.21" y2="150.35" xlink:href="#New_Gradient_Swatch_copy_26"/><linearGradient id="New_Gradient_Swatch_copy_26-13" x1="195.28" y1="257.53" x2="406" y2="147.9" xlink:href="#New_Gradient_Swatch_copy_26"/><linearGradient id="linear-gradient-18" x1="1436.58" y1="243.03" x2="1465.06" y2="297.33" gradientTransform="translate(-1047.69)" xlink:href="#linear-gradient-6"/><linearGradient id="linear-gradient-19" x1="1435.42" y1="243.8" x2="1463.83" y2="297.97" gradientTransform="translate(-1047.69)" xlink:href="#linear-gradient-6"/><linearGradient id="linear-gradient-20" x1="1434.25" y1="244.58" x2="1462.6" y2="298.62" gradientTransform="translate(-1047.69)" xlink:href="#linear-gradient-6"/><linearGradient id="linear-gradient-21" x1="1433.09" y1="245.35" x2="1461.37" y2="299.26" gradientTransform="translate(-1047.69)" xlink:href="#linear-gradient-6"/><linearGradient id="linear-gradient-22" x1="1431.93" y1="246.13" x2="1460.14" y2="299.91" gradientTransform="translate(-1047.69)" xlink:href="#linear-gradient-6"/><linearGradient id="linear-gradient-23" x1="1430.78" y1="246.9" x2="1458.91" y2="300.55" gradientTransform="translate(-1047.69)" xlink:href="#linear-gradient-6"/><linearGradient id="linear-gradient-24" x1="1429.62" y1="247.67" x2="1457.69" y2="301.2" gradientTransform="translate(-1047.69)" xlink:href="#linear-gradient-6"/><linearGradient id="linear-gradient-25" x1="1428.46" y1="248.45" x2="1456.46" y2="301.84" gradientTransform="translate(-1047.69)" xlink:href="#linear-gradient-6"/><linearGradient id="linear-gradient-26" x1="1427.3" y1="249.22" x2="1455.24" y2="302.48" gradientTransform="translate(-1047.69)" xlink:href="#linear-gradient-6"/><linearGradient id="linear-gradient-27" x1="1426.15" y1="249.99" x2="1454.01" y2="303.13" gradientTransform="translate(-1047.69)" xlink:href="#linear-gradient-6"/><linearGradient id="linear-gradient-28" x1="1424.99" y1="250.76" x2="1452.79" y2="303.77" gradientTransform="translate(-1047.69)" xlink:href="#linear-gradient-6"/><linearGradient id="linear-gradient-29" x1="1423.84" y1="251.53" x2="1451.57" y2="304.41" gradientTransform="translate(-1047.69)" xlink:href="#linear-gradient-6"/><linearGradient id="New_Gradient_Swatch_copy_9-5" x1="1377.13" y1="206.37" x2="1484.95" y2="344.13" gradientTransform="translate(-1047.69)" xlink:href="#New_Gradient_Swatch_copy_9"/><radialGradient id="radial-gradient-16" cx="1445.81" cy="281.81" r="31.13" gradientTransform="translate(-1047.69)" gradientUnits="userSpaceOnUse"><stop offset="0" stop-color="#711f56"/><stop offset="0.16" stop-color="#6c1e52"/><stop offset="0.36" stop-color="#5c1946"/><stop offset="0.58" stop-color="#431233"/><stop offset="0.82" stop-color="#200918"/><stop offset="1"/></radialGradient><linearGradient id="linear-gradient-30" x1="1386.81" y1="94.5" x2="1422.43" y2="162.41" gradientTransform="translate(-1047.69)" xlink:href="#linear-gradient-6"/><linearGradient id="linear-gradient-31" x1="1385.89" y1="95.11" x2="1421.45" y2="162.92" gradientTransform="translate(-1047.69)" xlink:href="#linear-gradient-6"/><linearGradient id="linear-gradient-32" x1="1384.97" y1="95.73" x2="1420.48" y2="163.43" gradientTransform="translate(-1047.69)" xlink:href="#linear-gradient-6"/><linearGradient id="linear-gradient-33" x1="1384.05" y1="96.34" x2="1419.51" y2="163.94" gradientTransform="translate(-1047.69)" xlink:href="#linear-gradient-6"/><linearGradient id="linear-gradient-34" x1="1383.14" y1="96.95" x2="1418.54" y2="164.45" gradientTransform="translate(-1047.69)" xlink:href="#linear-gradient-6"/><linearGradient id="linear-gradient-35" x1="1382.22" y1="97.56" x2="1417.57" y2="164.96" gradientTransform="translate(-1047.69)" xlink:href="#linear-gradient-6"/><linearGradient id="linear-gradient-36" x1="1381.3" y1="98.18" x2="1416.6" y2="165.47" gradientTransform="translate(-1047.69)" xlink:href="#linear-gradient-6"/><linearGradient id="linear-gradient-37" x1="1380.39" y1="98.79" x2="1415.63" y2="165.98" gradientTransform="translate(-1047.69)" xlink:href="#linear-gradient-6"/><linearGradient id="linear-gradient-38" x1="1379.47" y1="99.4" x2="1414.66" y2="166.49" gradientTransform="translate(-1047.69)" xlink:href="#linear-gradient-6"/><linearGradient id="linear-gradient-39" x1="1378.56" y1="100.01" x2="1413.69" y2="167" gradientTransform="translate(-1047.69)" xlink:href="#linear-gradient-6"/><linearGradient id="linear-gradient-40" x1="1377.64" y1="100.62" x2="1412.72" y2="167.51" gradientTransform="translate(-1047.69)" xlink:href="#linear-gradient-6"/><linearGradient id="linear-gradient-41" x1="1376.73" y1="101.23" x2="1411.75" y2="168.01" gradientTransform="translate(-1047.69)" xlink:href="#linear-gradient-6"/><linearGradient id="New_Gradient_Swatch_copy_9-6" x1="1316.41" y1="42.19" x2="1454.73" y2="218.93" gradientTransform="translate(-1047.69)" xlink:href="#New_Gradient_Swatch_copy_9"/><radialGradient id="radial-gradient-17" cx="1404.52" cy="145.03" r="47.3" xlink:href="#radial-gradient-16"/><linearGradient id="linear-gradient-42" x1="468.03" y1="208.59" x2="448.03" y2="175.88" gradientUnits="userSpaceOnUse"><stop offset="0" stop-color="#703ed1"/><stop offset="0.43" stop-color="#5a78e0"/><stop offset="0.7" stop-color="#4c9de9"/><stop offset="1" stop-color="#655cd9"/></linearGradient><linearGradient id="New_Gradient_Swatch_copy_26-14" x1="432.71" y1="219.55" x2="471.69" y2="174.21" gradientTransform="translate(160.41 -202.44) rotate(30.31)" xlink:href="#New_Gradient_Swatch_copy_26"/><radialGradient id="radial-gradient-18" cx="456.67" cy="194.43" r="14.48" xlink:href="#linear-gradient-4"/><linearGradient id="New_Gradient_Swatch_copy_9-7" x1="2277.92" y1="327.61" x2="2281.96" y2="334.16" gradientTransform="matrix(-1, 0, 0, 1, 2565.23, 0)" xlink:href="#New_Gradient_Swatch_copy_9"/><linearGradient id="New_Gradient_Swatch_copy_9-8" x1="2284.71" y1="339.66" x2="2280.86" y2="332.54" gradientTransform="matrix(-1, 0, 0, 1, 2565.23, 0)" xlink:href="#New_Gradient_Swatch_copy_9"/><linearGradient id="New_Gradient_Swatch_copy_9-9" x1="2281.47" y1="332.31" x2="2276.18" y2="311.17" gradientTransform="matrix(-1, 0, 0, 1, 2565.23, 0)" xlink:href="#New_Gradient_Swatch_copy_9"/><linearGradient id="linear-gradient-43" x1="2319.91" y1="311.74" x2="2323.07" y2="311.74" gradientTransform="matrix(-1, 0, 0, 1, 2565.23, 0)" xlink:href="#linear-gradient-3"/><linearGradient id="linear-gradient-44" x1="2246.94" y1="353.37" x2="2249.01" y2="353.37" gradientTransform="matrix(-1, 0, 0, 1, 2565.23, 0)" xlink:href="#linear-gradient-3"/><radialGradient id="radial-gradient-19" cx="8006.92" cy="2160.28" r="29.09" gradientTransform="matrix(-0.5, -0.87, -0.5, 0.86, 5333.94, 5262.96)" gradientUnits="userSpaceOnUse"><stop offset="0" stop-color="#f5f6f8"/><stop offset="0.14" stop-color="#f0f2f5"/><stop offset="0.29" stop-color="#e3e7eb"/><stop offset="0.46" stop-color="#ccd4da"/><stop offset="0.62" stop-color="#adb9c3"/><stop offset="0.71" stop-color="#99a9b5"/><stop offset="0.76" stop-color="#a3b2bc"/><stop offset="0.85" stop-color="#bfc9d1"/><stop offset="0.96" stop-color="#eceff1"/><stop offset="1" stop-color="#fff"/></radialGradient><linearGradient id="New_Gradient_Swatch_copy_9-10" x1="647.8" y1="184.53" x2="681.81" y2="184.53" gradientTransform="translate(-406.94)" xlink:href="#New_Gradient_Swatch_copy_9"/><linearGradient id="New_Gradient_Swatch_copy_9-11" x1="682.15" y1="187.74" x2="731.46" y2="170.42" gradientTransform="translate(-595.88 -54.62)" xlink:href="#New_Gradient_Swatch_copy_9"/><linearGradient id="New_Gradient_Swatch_copy_9-12" x1="636.54" y1="163.08" x2="673.75" y2="163.08" gradientTransform="translate(-595.88 -54.62)" xlink:href="#New_Gradient_Swatch_copy_9"/><linearGradient id="linear-gradient-45" x1="706.02" y1="195.21" x2="668.26" y2="131.46" gradientTransform="translate(-406.94)" xlink:href="#linear-gradient-42"/><linearGradient id="New_Gradient_Swatch_copy_26-15" x1="657.94" y1="189.22" x2="716.42" y2="136.26" gradientTransform="translate(-406.94)" xlink:href="#New_Gradient_Swatch_copy_26"/><radialGradient id="radial-gradient-20" cx="693.79" cy="157.51" r="28.72" gradientTransform="translate(-406.94)" xlink:href="#radial-gradient-16"/></defs><g class="cls-2"><g id="Layer_1" data-name="Layer 1"><path class="cls-3" d="M430.66,310.45c0,1.87-1.35,3.83-4,5.37l-38.48,36.73c-4.87,2.81-12.23,3.11-16.45.68l-70-40.66c-2-1.18-2.95-2.78-2.82-4.44a2.33,2.33,0,0,0,0,.29v5.29c0,1.52,1,3,2.84,4.05l70,40.66c4.22,2.43,11.58,2.13,16.45-.68L426.64,321c2.7-1.56,4.07-3.56,4-5.45C430.66,315.24,430.72,311.75,430.66,310.45Z" transform="translate(-188.94 -54.62)"/><g class="cls-4"><path class="cls-5" d="M378.86,357.75a20.23,20.23,0,0,1-10.09-2.43l-70-40.66c-3.67-2.12-5.78-5.48-5.78-9.21,0-4.1,2.54-7.91,7-10.46l61.44-23.64a24.76,24.76,0,0,1,12.24-3.11,20.19,20.19,0,0,1,10.08,2.43l47.05,27.56c3.68,2.13,5.79,5.49,5.79,9.22,0,4.09-2.54,7.9-7,10.46L391.1,354.64A24.92,24.92,0,0,1,378.86,357.75Z" transform="translate(-188.94 -54.62)"/><path class="cls-6" d="M300.21,295.45l61.44-23.64a24.2,24.2,0,0,1,12.19-3,23,23,0,0,1,5.31.68,20,20,0,0,1,4.67,1.88L429.23,298s1.35.79,1.38.82a9.79,9.79,0,0,1,5,9.16c-.2,3.71-3,7.85-7,10.17l-37.79,36.06a24.33,24.33,0,0,1-11.95,3.05,19.74,19.74,0,0,1-9.84-2.36L299,314.2c-3.53-2-5.53-5.25-5.51-8.79C293.53,301.53,296,297.9,300.21,295.45Z" transform="translate(-188.94 -54.62)"/><path class="cls-7" d="M300.48,295.91l61.44-23.63a23.76,23.76,0,0,1,12.13-2.95,22.47,22.47,0,0,1,5.27.77,22.05,22.05,0,0,1,4.6,1.93l45.17,26.46c.09.05,1.3.77,1.36.83a9,9,0,0,1,4.3,9.11c-.37,3.32-3.47,7.79-7.09,9.88l-37.1,35.4a23.78,23.78,0,0,1-11.65,3,19.16,19.16,0,0,1-9.6-2.29l-70-40.66c-3.39-2-5.28-5-5.25-8.36C294.09,301.7,296.41,298.26,300.48,295.91Z" transform="translate(-188.94 -54.62)"/><path class="cls-8" d="M300.75,296.37l61.44-23.63a23.26,23.26,0,0,1,12.07-2.86,22.35,22.35,0,0,1,5.22.84,27.55,27.55,0,0,1,4.55,2L429,299c.13.08,1.25.75,1.35.83,3.44,2.23,4.14,5.51,3.55,9.05-.5,2.94-3.94,7.74-7.16,9.6L390.3,353.25a23.3,23.3,0,0,1-11.36,2.9,18.74,18.74,0,0,1-9.37-2.22l-70-40.66c-3.25-1.87-5-4.76-5-7.94C294.64,301.88,296.86,298.62,300.75,296.37Z" transform="translate(-188.94 -54.62)"/><path class="cls-9" d="M301,296.84l61.44-23.64a22.75,22.75,0,0,1,12-2.77,22.3,22.3,0,0,1,5.16.92,31.87,31.87,0,0,1,4.5,2l44.67,26.18c.17.1,1.21.72,1.34.84,3.35,2.25,4.37,5.71,2.8,9,0,2.61-4.4,7.69-7.22,9.31L390,352.79A22.72,22.72,0,0,1,379,355.61a18.16,18.16,0,0,1-9.13-2.14l-70-40.66c-3.09-1.79-4.77-4.53-4.7-7.52C295.2,302.05,297.3,299,301,296.84Z" transform="translate(-188.94 -54.62)"/><path class="cls-10" d="M301.28,297.3l61.44-23.64a22.3,22.3,0,0,1,12-2.69,22,22,0,0,1,5.11,1,37,37,0,0,1,4.44,2.1l44.43,26c.21.13,1.16.71,1.32.85,3.28,2.29,4,5.77,2.05,8.94,0,2.23-4.86,7.63-7.27,9l-35,33.41A22.08,22.08,0,0,1,379,355.08a17.78,17.78,0,0,1-8.88-2.07l-70-40.66c-3-1.71-4.52-4.29-4.44-7.1C295.75,302.23,297.75,299.34,301.28,297.3Z" transform="translate(-188.94 -54.62)"/><path class="cls-11" d="M301.55,297.76,363,274.13a21.77,21.77,0,0,1,11.91-2.61,21,21,0,0,1,5.06,1.09,48.31,48.31,0,0,1,4.39,2.15l44.18,25.88c.26.15,1.11.68,1.31.85,3.2,2.32,3.66,5.83,1.3,8.89,0,1.86-5.32,7.57-7.33,8.73L389.5,351.86A21.56,21.56,0,0,1,379,354.54a17.09,17.09,0,0,1-8.64-2l-70-40.66c-2.81-1.62-4.27-4-4.17-6.67C296.3,302.41,298.19,299.7,301.55,297.76Z" transform="translate(-188.94 -54.62)"/><path class="cls-12" d="M301.82,298.22l61.44-23.63a21.24,21.24,0,0,1,11.85-2.52,21,21,0,0,1,5,1.17c.61.21,3.82,1.9,4.32,2.2l43.94,25.74a11.56,11.56,0,0,1,1.29.86c3.12,2.35,3.31,5.88.56,8.83,0,1.49-5.78,7.51-7.39,8.44L389.23,351.4A21.13,21.13,0,0,1,379.05,354a16.71,16.71,0,0,1-8.41-1.93l-70-40.66c-2.66-1.54-4-3.81-3.9-6.25C296.86,302.58,298.64,300.06,301.82,298.22Z" transform="translate(-188.94 -54.62)"/><path class="cls-13" d="M302.08,298.69l61.44-23.64a20.76,20.76,0,0,1,11.8-2.43,20.43,20.43,0,0,1,5,1.25c.45.16,3.89,2,4.27,2.25l43.69,25.59a11.45,11.45,0,0,1,1.28.87c3,2.39,3,5.94-.19,8.78,0,1.11-6.25,7.46-7.46,8.16L389,350.94a20.52,20.52,0,0,1-9.88,2.53,16.31,16.31,0,0,1-8.17-1.85L300.9,311c-2.52-1.46-3.77-3.57-3.63-5.83S299.09,300.42,302.08,298.69Z" transform="translate(-188.94 -54.62)"/><path class="cls-14" d="M302.35,299.15l61.44-23.64a18.67,18.67,0,0,1,16.66-1c.3.11,4,2.15,4.22,2.3l43.44,25.45a10.31,10.31,0,0,1,1.26.87c3,2.42,2.61,6-.93,8.72,0,.75-6.71,7.41-7.52,7.88l-32.23,30.75a20,20,0,0,1-9.59,2.47,15.82,15.82,0,0,1-7.92-1.78l-70-40.66c-2.38-1.38-3.52-3.34-3.36-5.4S299.53,300.78,302.35,299.15Z" transform="translate(-188.94 -54.62)"/><path class="cls-15" d="M302.62,299.61,364.06,276a19.94,19.94,0,0,1,11.69-2.27,19.74,19.74,0,0,1,4.86,1.42c.15.06,4,2.28,4.16,2.35L428,302.79a7.77,7.77,0,0,1,1.26.88c2.88,2.45,2.25,6.06-1.68,8.66,0,.37-7.18,7.35-7.58,7.59L388.43,350a19.6,19.6,0,0,1-9.3,2.4,15.33,15.33,0,0,1-7.69-1.72l-70-40.66c-2.23-1.28-3.27-3.09-3.1-5S300,301.13,302.62,299.61Z" transform="translate(-188.94 -54.62)"/><path d="M371.71,350.23l-70-40.66c-4.21-2.43-3.68-6.69,1.18-9.5l61.44-23.63c4.87-2.81,12.24-3.12,16.45-.68l47.05,27.56c4.22,2.44,3.69,6.69-1.18,9.5l-38.48,36.73C383.29,352.36,375.93,352.66,371.71,350.23Z" transform="translate(-188.94 -54.62)"/></g><path class="cls-16" d="M371.71,350.13l-70-40.66c-1.88-1.08-2.81-2.53-2.84-4.05v-5.29c0-1.84,1.39,1.36,4-.15l61.44-23.64c4.87-2.81,12.24-3.11,16.45-.68l47.05,27.57c1.41.81,2.43-2.64,2.8-1.54.12.36,0,5.2.05,5.58,0,1.89-1.33,3.89-4,5.45l-38.48,36.73C383.29,352.26,375.93,352.57,371.71,350.13Z" transform="translate(-188.94 -54.62)"/><path class="cls-17" d="M371.71,344.94l-70-40.66c-4.21-2.43-3.68-6.68,1.18-9.49l61.44-23.64c4.87-2.81,12.24-3.11,16.45-.68L427.82,298c4.22,2.43,3.69,6.68-1.18,9.49l-38.48,36.73C383.29,347.07,375.93,347.38,371.71,344.94Z" transform="translate(-188.94 -54.62)"/><path class="cls-18" d="M427.82,298l-47.05-27.57c-4.21-2.43-11.58-2.13-16.45.68l-30.95,11.91a8.06,8.06,0,0,0,1,.66l70,40.66a11.69,11.69,0,0,0,3.35,1.24l18.95-18.09C431.51,304.72,432,300.47,427.82,298Z" transform="translate(-188.94 -54.62)"/><path class="cls-19" d="M426.64,306.65l-38.48,36.73c-4.87,2.81-12.23,3.11-16.45.68l-70-40.66a5,5,0,0,1-2.81-3.74c-.22,1.73.7,3.4,2.81,4.62l70,40.66c4.22,2.44,11.58,2.13,16.45-.68l38.48-36.73c2.85-1.64,4.2-3.78,4-5.76C430.42,303.49,429.07,305.25,426.64,306.65Z" transform="translate(-188.94 -54.62)"/><path class="cls-20" d="M463.18,345.17,291.24,245.82c-8.79-5.08-15.92-18.69-15.92-30.41V83.91c0-11.72,7.13-17.11,15.92-12l171.94,99.35c8.79,5.07,15.91,18.69,15.91,30.41V333.13C479.09,344.85,472,350.24,463.18,345.17Z" transform="translate(-188.94 -54.62)"/><path class="cls-21" d="M465.23,336,295.71,238.08c-7.07-4.5-11.45-13.48-11.45-22.67V83.05a2.82,2.82,0,0,1,4.25-2.43l.5.29L458.7,179c8.43,4.85,11.45,13.48,11.45,22.67V333.58a3,3,0,0,1-4.55,2.64Z" transform="translate(-188.94 -54.62)"/><path class="cls-22" d="M458.7,179,289,80.91l-.5-.29a2.82,2.82,0,0,0-4.25,2.43V215.41c0,9.19,4.38,18.17,11.45,22.67L465.23,336l.37.21a3,3,0,0,0,4.55-2.64V201.64C470.15,192.45,467.13,183.82,458.7,179Zm9.67,154.61a1.27,1.27,0,0,1-1.27,1.26,1.29,1.29,0,0,1-.62-.17L296.61,236.53c-6.39-4.06-10.56-12.37-10.56-21.12V83.05a1,1,0,0,1,1-1,1,1,0,0,1,.52.15l170.2,98.35c8.73,5,10.56,14.27,10.56,21.13Z" transform="translate(-188.94 -54.62)"/><path class="cls-23" d="M467.69,168.83,295.75,69.48c-3.48-2-6.69-2.38-9.31-1.37-.34.13-4.77,2.49-5.09,2.66h0c2.71-1.31,6.15-1.07,9.9,1.1l171.94,99.35c8.79,5.07,15.91,18.69,15.91,30.41V333.13c0,7.32-2.77,12.16-7,13.54a2.61,2.61,0,0,0,1.4-.47c.2-.12,5-2.84,5.21-3,3-2.12,4.9-6.47,4.9-12.49V199.24C483.6,187.52,476.48,173.91,467.69,168.83Z" transform="translate(-188.94 -54.62)"/><path class="cls-24" d="M463.94,170.84,292,71.5c-3.6-2.09-6.91-2.38-9.58-1.23a11.74,11.74,0,0,1,7.67,1.8L462,171.42c8.79,5.07,15.92,18.69,15.92,30.41V333.32c0,6.92-2.49,11.6-6.33,13.26,4.91-.78,8.24-5.82,8.24-13.83V201.26C479.86,189.53,472.73,175.92,463.94,170.84Z" transform="translate(-188.94 -54.62)"/><polygon class="cls-25" points="265.14 264.57 112.53 176.52 112.53 25.73 265.14 113.78 265.14 264.57"/><polygon class="cls-26" points="264.61 264.93 112 176.87 112 26.08 264.61 114.14 264.61 264.93"/><polygon class="cls-25" points="263.55 265.28 110.94 177.23 110.94 26.44 263.55 114.49 263.55 265.28"/><polygon class="cls-27" points="263.02 265.63 110.41 177.58 110.41 26.79 263.02 114.85 263.02 265.63"/><polygon class="cls-28" points="112.74 176.23 112.74 41.06 260.69 126.44 260.69 261.61 112.74 176.23"/><polygon class="cls-29" points="122.11 72.78 116.79 69.7 116.79 49.98 122.11 53.05 122.11 72.78"/><polygon class="cls-30" points="196.5 114.28 156.71 91.3 156.71 74.16 196.5 97.14 196.5 114.28"/><polygon class="cls-31" points="211.72 123.15 198.67 115.53 198.67 98.39 211.72 106.02 211.72 123.15"/><polygon class="cls-32" points="236.56 137.59 214.2 124.59 214.2 107.45 236.56 120.45 236.56 137.59"/><polygon class="cls-31" points="255.34 148.43 238.71 138.83 238.71 121.69 255.34 131.29 255.34 148.43"/><polygon class="cls-31" points="153.55 89.66 124.23 72.97 124.23 55.83 153.55 72.52 153.55 89.66"/><path class="cls-31" d="M422.71,201.23l-32.38-18.67a6.69,6.69,0,0,1-2.78-5.32h0c0-2,1.25-3,2.78-2.1l32.38,18.68a6.66,6.66,0,0,1,2.78,5.31h0C425.49,201.18,424.24,202.12,422.71,201.23Z" transform="translate(-188.94 -54.62)"/><path class="cls-33" d="M416,189.93l-25.65-14.79c-1.53-.88-2.78.06-2.78,2.1a6.69,6.69,0,0,0,2.78,5.32L416,197.35Z" transform="translate(-188.94 -54.62)"/><polygon class="cls-34" points="122.11 109.19 116.79 106.12 116.79 86.39 122.11 89.47 122.11 109.19"/><polygon class="cls-35" points="196.5 150.69 156.71 127.71 156.71 110.57 196.5 133.55 196.5 150.69"/><polygon class="cls-36" points="211.72 159.57 198.67 151.94 198.67 134.8 211.72 142.43 211.72 159.57"/><polygon class="cls-31" points="236.56 174.01 214.2 161 214.2 143.86 236.56 156.87 236.56 174.01"/><polygon class="cls-31" points="255.34 184.85 238.71 175.24 238.71 158.1 255.34 167.71 255.34 184.85"/><polygon class="cls-31" points="153.55 126.07 124.23 109.38 124.23 92.25 153.55 108.93 153.55 126.07"/><path class="cls-31" d="M382.55,215.23l-33.66-19.42a6.9,6.9,0,0,1-2.89-5.52h0c0-2.13,1.29-3.11,2.89-2.19l33.66,19.42a6.9,6.9,0,0,1,2.89,5.52h0C385.44,215.17,384.15,216.15,382.55,215.23Z" transform="translate(-188.94 -54.62)"/><path class="cls-37" d="M375.55,203.48,348.89,188.1c-1.6-.92-2.89.06-2.89,2.19a6.9,6.9,0,0,0,2.89,5.52l26.66,15.38Z" transform="translate(-188.94 -54.62)"/><path class="cls-31" d="M382.55,227.42,348.89,208a6.9,6.9,0,0,1-2.89-5.52h0c0-2.13,1.29-3.11,2.89-2.19l33.66,19.41a6.94,6.94,0,0,1,2.89,5.53h0C385.44,227.37,384.15,228.35,382.55,227.42Z" transform="translate(-188.94 -54.62)"/><path class="cls-38" d="M358.58,205.87l-9.69-5.57c-1.6-.92-2.89.06-2.89,2.19a6.92,6.92,0,0,0,2.89,5.52l9.69,5.57Z" transform="translate(-188.94 -54.62)"/><polygon class="cls-39" points="122.11 177.33 116.79 174.26 116.79 134.38 122.11 137.46 122.11 177.33"/><polygon class="cls-40" points="196.5 198.68 156.71 175.71 156.71 158.57 196.5 181.54 196.5 198.68"/><polygon class="cls-41" points="211.72 207.56 198.67 199.93 198.67 182.79 211.72 190.42 211.72 207.56"/><polygon class="cls-31" points="236.56 222 214.2 208.99 214.2 191.85 236.56 204.86 236.56 222"/><polygon class="cls-31" points="255.34 232.84 238.71 223.24 238.71 206.1 255.34 215.7 255.34 232.84"/><polygon class="cls-31" points="153.55 174.06 124.23 157.38 124.23 140.24 153.55 156.92 153.55 174.06"/><polygon class="cls-42" points="196.5 219.89 156.71 196.92 156.71 179.78 196.5 202.75 196.5 219.89"/><polygon class="cls-31" points="211.72 228.77 198.67 221.15 198.67 204.01 211.72 211.63 211.72 228.77"/><polygon class="cls-43" points="236.56 243.21 214.2 230.2 214.2 213.06 236.56 226.07 236.56 243.21"/><polygon class="cls-31" points="255.34 254.05 238.71 244.45 238.71 227.31 255.34 236.91 255.34 254.05"/><polygon class="cls-31" points="153.55 195.27 124.23 178.59 124.23 161.45 153.55 178.13 153.55 195.27"/><polygon id="SVGID-7" data-name="SVGID" class="cls-1" points="246.1 108.35 237.26 103.25 237.27 110.17 246.12 115.26 246.1 108.35"/><g class="cls-44"><polygon class="cls-1" points="236.45 103.33 236.27 104.08 236.15 103.36 236.45 103.33"/><polygon class="cls-1" points="241.4 102.86 245.56 105.03 245.59 105.26 243.17 115.54 241.98 115.65 237.82 113.48 236.27 104.08 236.45 103.33 241.4 102.86"/><polygon class="cls-1" points="243.17 115.54 245.59 105.26 247.22 115.16 243.17 115.54"/></g><polygon id="SVGID-8" data-name="SVGID" class="cls-1" points="224.02 95.61 215.18 90.51 215.19 97.42 224.03 102.52 224.02 95.61"/><g class="cls-45"><polygon class="cls-1" points="219.31 90.12 220.25 90.61 217.63 101.73 215.74 100.74 214.07 90.61 219.31 90.12"/><polygon class="cls-1" points="220.25 90.61 223.47 92.29 225.14 102.42 219.89 102.91 217.63 101.73 220.25 90.61"/></g><polygon id="SVGID-9" data-name="SVGID" class="cls-1" points="201.93 82.86 193.09 77.77 193.1 84.68 201.94 89.78 201.93 82.86"/><g class="cls-46"><polygon class="cls-1" points="194.51 77.63 193 84.04 191.98 77.87 194.51 77.63"/><polygon class="cls-1" points="197.23 77.38 201.39 79.55 202.32 85.22 201.23 89.84 197.81 90.17 193.65 88 193 84.04 194.51 77.63 197.23 77.38"/><polygon class="cls-1" points="201.23 89.84 202.32 85.22 203.06 89.67 201.23 89.84"/></g><polygon id="SVGID-10" data-name="SVGID" class="cls-1" points="179.85 70.12 171.01 65.02 171.02 71.94 179.86 77.03 179.85 70.12"/><g class="cls-47"><polygon class="cls-1" points="175.14 64.64 178.03 66.14 175.4 77.25 171.56 75.25 169.9 65.13 175.14 64.64"/><polygon class="cls-1" points="178.03 66.14 179.3 66.81 180.97 76.93 175.72 77.42 175.4 77.25 178.03 66.14"/></g><polygon id="SVGID-11" data-name="SVGID" class="cls-1" points="157.76 57.38 148.92 52.28 148.93 59.2 157.77 64.29 157.76 57.38"/><g class="cls-48"><polygon class="cls-1" points="152.58 51.94 150.01 62.79 149.48 62.51 147.81 52.38 152.58 51.94"/><polygon class="cls-1" points="153.06 51.89 157.22 54.06 158.88 64.19 153.64 64.68 150.01 62.79 152.58 51.94 153.06 51.89"/></g><polygon id="SVGID-12" data-name="SVGID" class="cls-1" points="135.68 44.64 126.84 39.54 126.85 46.45 135.69 51.55 135.68 44.64"/><g class="cls-49"><polygon class="cls-1" points="126.7 39.55 126.12 42.01 125.73 39.64 126.7 39.55"/><polygon class="cls-1" points="130.97 39.15 135.13 41.32 135.44 43.19 133.41 51.76 131.55 51.94 127.39 49.77 126.12 42.01 126.7 39.55 130.97 39.15"/><polygon class="cls-1" points="133.41 51.76 135.44 43.19 136.8 51.45 133.41 51.76"/></g><path class="cls-50" d="M447.51,139.69c-2.43-1.41-5.52-1.18-8.72.65-5.94,3.4-10.61,11.4-10.64,18.21a9.15,9.15,0,0,0,2.59,7,6.57,6.57,0,0,0,4.19,1.71l-.05-3.87c-1,.09-1,0-1.59-.62a5.59,5.59,0,0,1-1.37-4.2c0-5.4,4-12.25,8.74-14.95,2-1.12,3.76-1.36,4.95-.67s1.86,2.35,1.85,4.56a17.38,17.38,0,0,1-2.37,8.09l3.28,1.83a21.09,21.09,0,0,0,2.85-9.91C451.24,143.87,449.92,141.09,447.51,139.69Z" transform="translate(-188.94 -54.62)"/><path class="cls-51" d="M425.39,126.89c-2.43-1.41-5.53-1.18-8.72.65-5.94,3.41-10.62,11.4-10.64,18.21,0,3,.88,5.43,2.59,7a6.63,6.63,0,0,0,4.18,1.72l-.05-3.87c-1,.08-1-.06-1.59-.62a5.66,5.66,0,0,1-1.37-4.2c0-5.41,4-12.26,8.75-15,1.95-1.12,3.76-1.36,4.95-.66s1.85,2.34,1.84,4.55a17.23,17.23,0,0,1-2.37,8.09l3.29,1.84a21.1,21.1,0,0,0,2.85-9.92C429.11,131.07,427.79,128.29,425.39,126.89Z" transform="translate(-188.94 -54.62)"/><path class="cls-52" d="M403.26,114.1c-2.42-1.42-5.52-1.19-8.72.65-5.94,3.4-10.61,11.4-10.63,18.2,0,3,.88,5.43,2.58,7a6.53,6.53,0,0,0,4.19,1.72l-.05-3.87c-1,.08-1,0-1.59-.62a5.62,5.62,0,0,1-1.37-4.2c0-5.4,4-12.25,8.75-15,1.95-1.12,3.75-1.36,4.95-.66s1.85,2.34,1.84,4.55a17.42,17.42,0,0,1-2.37,8.1l3.29,1.83a21.33,21.33,0,0,0,2.85-9.92C407,118.27,405.67,115.5,403.26,114.1Z" transform="translate(-188.94 -54.62)"/><path class="cls-53" d="M381.14,101.3c-2.43-1.41-5.52-1.18-8.72.65-5.94,3.4-10.61,11.4-10.64,18.21a9.15,9.15,0,0,0,2.59,7,6.56,6.56,0,0,0,4.18,1.71l0-3.87c-1,.09-1,0-1.59-.62a5.61,5.61,0,0,1-1.37-4.2c0-5.4,4-12.25,8.74-15,2-1.12,3.76-1.36,4.95-.67s1.86,2.35,1.85,4.55a17.29,17.29,0,0,1-2.38,8.1L382,119a21.09,21.09,0,0,0,2.85-9.91C384.86,105.48,383.55,102.7,381.14,101.3Z" transform="translate(-188.94 -54.62)"/><path class="cls-54" d="M359,88.5c-2.43-1.41-5.53-1.18-8.72.65-5.94,3.4-10.62,11.4-10.64,18.21,0,3,.88,5.42,2.59,7a6.63,6.63,0,0,0,4.18,1.72l-.05-3.88c-1,.09-1,0-1.59-.62a5.63,5.63,0,0,1-1.37-4.2c0-5.4,4-12.25,8.75-15,1.95-1.12,3.76-1.36,4.95-.67S359,94.1,359,96.31a17.38,17.38,0,0,1-2.37,8.09l3.29,1.83a21.09,21.09,0,0,0,2.85-9.91C362.74,92.68,361.42,89.9,359,88.5Z" transform="translate(-188.94 -54.62)"/><path class="cls-55" d="M336.89,75.7c-2.42-1.41-5.52-1.18-8.72.65-5.94,3.41-10.61,11.4-10.63,18.21,0,3,.88,5.43,2.58,7a6.63,6.63,0,0,0,4.19,1.72l-.05-3.87c-1,.08-1-.06-1.59-.62a5.62,5.62,0,0,1-1.37-4.2c0-5.41,4-12.26,8.74-15,2-1.12,3.76-1.36,5-.66s1.85,2.34,1.84,4.55a17.42,17.42,0,0,1-2.37,8.1l3.29,1.83a21.2,21.2,0,0,0,2.84-9.92C340.62,79.88,339.3,77.1,336.89,75.7Z" transform="translate(-188.94 -54.62)"/><path class="cls-56" d="M430.32,159.11c0-6.35,4.37-13.8,9.91-17,3-1.71,5.86-1.92,8.12-.6a3.14,3.14,0,0,1,.48.33,6.07,6.07,0,0,0-1.57-1.33c-2.26-1.31-5.15-1.1-8.12.61-5.54,3.17-9.89,10.62-9.92,17a8.53,8.53,0,0,0,2.41,6.51,5.12,5.12,0,0,0,.54.41A8.94,8.94,0,0,1,430.32,159.11Z" transform="translate(-188.94 -54.62)"/><path class="cls-57" d="M449.22,148.8c0-2.21-.67-3.87-1.85-4.56l-.19-.08a6.54,6.54,0,0,1,.87,3.57,17.4,17.4,0,0,1-2.38,8.1l1.34.74A17.17,17.17,0,0,0,449.22,148.8Z" transform="translate(-188.94 -54.62)"/><path class="cls-58" d="M408,146.32c0-6.34,4.38-13.79,9.91-17,3-1.71,5.87-1.93,8.13-.61.17.1.32.22.48.33a6.28,6.28,0,0,0-1.58-1.32c-2.26-1.32-5.14-1.1-8.12.61-5.54,3.17-9.89,10.62-9.91,17a8.51,8.51,0,0,0,2.41,6.52c.17.15.36.28.54.41A8.93,8.93,0,0,1,408,146.32Z" transform="translate(-188.94 -54.62)"/><path class="cls-59" d="M426.91,136c0-2.21-.66-3.86-1.84-4.55a1.21,1.21,0,0,0-.2-.09,6.6,6.6,0,0,1,.87,3.58,17.35,17.35,0,0,1-2.37,8.09l1.33.75A17.11,17.11,0,0,0,426.91,136Z" transform="translate(-188.94 -54.62)"/><path class="cls-60" d="M386.06,133.54c0-6.34,4.37-13.8,9.91-17,3-1.7,5.86-1.92,8.12-.6a5.78,5.78,0,0,1,.48.33A6,6,0,0,0,403,115c-2.26-1.32-5.15-1.1-8.12.6-5.54,3.17-9.89,10.63-9.92,17a8.53,8.53,0,0,0,2.41,6.51c.17.16.36.28.54.42A9,9,0,0,1,386.06,133.54Z" transform="translate(-188.94 -54.62)"/><path class="cls-61" d="M405,123.23c0-2.21-.67-3.87-1.85-4.55a1.63,1.63,0,0,0-.19-.09,6.5,6.5,0,0,1,.86,3.57,17.27,17.27,0,0,1-2.37,8.1l1.34.75A17.24,17.24,0,0,0,405,123.23Z" transform="translate(-188.94 -54.62)"/><path class="cls-62" d="M363.87,120.64c0-6.35,4.37-13.8,9.91-17,3-1.71,5.86-1.92,8.12-.61a5.36,5.36,0,0,1,.49.34,6.28,6.28,0,0,0-1.58-1.33c-2.26-1.31-5.14-1.1-8.12.61-5.54,3.17-9.89,10.62-9.92,17a8.5,8.5,0,0,0,2.42,6.51,4.26,4.26,0,0,0,.54.41A8.9,8.9,0,0,1,363.87,120.64Z" transform="translate(-188.94 -54.62)"/><path class="cls-63" d="M382.77,110.32c0-2.2-.66-3.86-1.84-4.55l-.2-.09a6.6,6.6,0,0,1,.87,3.58,17.4,17.4,0,0,1-2.38,8.1l1.34.74A17.17,17.17,0,0,0,382.77,110.32Z" transform="translate(-188.94 -54.62)"/><path class="cls-64" d="M341.56,107.85c0-6.34,4.38-13.79,9.91-17,3-1.71,5.87-1.93,8.13-.61.17.1.32.22.48.33a6.11,6.11,0,0,0-1.58-1.32c-2.26-1.32-5.14-1.1-8.12.61-5.54,3.17-9.89,10.62-9.91,17a8.47,8.47,0,0,0,2.41,6.51,5.24,5.24,0,0,0,.54.42A8.93,8.93,0,0,1,341.56,107.85Z" transform="translate(-188.94 -54.62)"/><path class="cls-65" d="M360.46,97.54c0-2.21-.66-3.87-1.84-4.55a1.63,1.63,0,0,0-.19-.09,6.52,6.52,0,0,1,.86,3.58,17.35,17.35,0,0,1-2.37,8.09l1.34.75A17.22,17.22,0,0,0,360.46,97.54Z" transform="translate(-188.94 -54.62)"/><path class="cls-66" d="M319.61,95.07c0-6.34,4.37-13.8,9.91-17,3-1.71,5.86-1.92,8.12-.6a5.25,5.25,0,0,1,.49.33,6.24,6.24,0,0,0-1.58-1.32c-2.26-1.32-5.14-1.11-8.12.6-5.54,3.17-9.89,10.62-9.92,17a8.5,8.5,0,0,0,2.42,6.51,5.56,5.56,0,0,0,.54.42A8.93,8.93,0,0,1,319.61,95.07Z" transform="translate(-188.94 -54.62)"/><path class="cls-67" d="M415.67,128.72c-3.95-2-9.25-.34-11.85,3.69s-1.49,8.93,2.45,10.92,9.25.34,11.85-3.69S419.62,130.71,415.67,128.72Z" transform="translate(-188.94 -54.62)"/><path class="cls-68" d="M350.21,369.16c-1.57-.91-1.58-2.38,0-3.29l12.95-7.48a8.8,8.8,0,0,1,8,0c2.2,1.27,2.21,3.33,0,4.59l-11.57,6.68a1,1,0,0,1-.88,0,.27.27,0,0,1,0-.51l11.57-6.68c1.7-1,1.69-2.59,0-3.57a6.85,6.85,0,0,0-6.19,0l-12.95,7.48a1.21,1.21,0,0,0,0,2.28,4.34,4.34,0,0,0,3.94,0l12.41-7.16c.48-.28.48-.74,0-1a2,2,0,0,0-1.78,0l-10.34,6a.06.06,0,0,0,0,.11.22.22,0,0,0,.21,0l7.6-4.39a1,1,0,0,1,.88,0c.24.14.25.37,0,.51l-7.6,4.39a2.15,2.15,0,0,1-2,0,.59.59,0,0,1,0-1.13l10.34-6a3.91,3.91,0,0,1,3.54,0,1.08,1.08,0,0,1,0,2l-12.41,7.16A6.29,6.29,0,0,1,350.21,369.16Z" transform="translate(-188.94 -54.62)"/><path class="cls-69" d="M350.21,368.83c-1.57-.91-1.58-2.39,0-3.29l12.95-7.48a8.8,8.8,0,0,1,8,0c2.2,1.27,2.21,3.32,0,4.59l-11.57,6.68a1,1,0,0,1-.88,0c-.24-.15-.24-.37,0-.51l11.57-6.68c1.7-1,1.69-2.59,0-3.58a6.85,6.85,0,0,0-6.19,0l-12.95,7.48a1.2,1.2,0,0,0,0,2.27,4.34,4.34,0,0,0,3.94,0l12.41-7.16c.48-.28.48-.74,0-1a2,2,0,0,0-1.78,0l-10.34,6a.06.06,0,0,0,0,.11.26.26,0,0,0,.21,0l7.6-4.39a1,1,0,0,1,.88,0c.24.15.25.37,0,.51l-7.6,4.39a2.18,2.18,0,0,1-2,0,.6.6,0,0,1,0-1.14l10.34-6a3.94,3.94,0,0,1,3.54,0,1.08,1.08,0,0,1,0,2.05l-12.41,7.16A6.29,6.29,0,0,1,350.21,368.83Z" transform="translate(-188.94 -54.62)"/><g class="cls-70"><path class="cls-71" d="M367.43,359.81a2,2,0,0,0-1.78,0l-10.34,6a.07.07,0,0,0,0,.12.26.26,0,0,0,.21,0l7.6-4.39a.88.88,0,0,1,.29-.07l2.24-1.29a2,2,0,0,1,1.78,0,.68.68,0,0,1,.31.35A.53.53,0,0,0,367.43,359.81Z" transform="translate(-188.94 -54.62)"/><path class="cls-72" d="M354.44,366.73a2.18,2.18,0,0,0,2,0l7.6-4.39c.2-.11.23-.28.1-.42a.45.45,0,0,1-.1.09l-7.6,4.39a2.18,2.18,0,0,1-2,0,.81.81,0,0,1-.36-.41A.61.61,0,0,0,354.44,366.73Z" transform="translate(-188.94 -54.62)"/><path class="cls-73" d="M370.22,358.25a6.85,6.85,0,0,0-6.19,0l-12.95,7.48a1.28,1.28,0,0,0-.78,1.29,1.43,1.43,0,0,1,.78-1L364,358.57a6.85,6.85,0,0,1,6.19,0,2.27,2.27,0,0,1,1.26,1.63A2.08,2.08,0,0,0,370.22,358.25Z" transform="translate(-188.94 -54.62)"/><path class="cls-74" d="M371.12,362.33,359.55,369a1,1,0,0,1-.88,0,.43.43,0,0,1-.1-.09c-.13.14-.1.31.1.43a1,1,0,0,0,.88,0l11.57-6.68a2.66,2.66,0,0,0,1.61-2.46A2.82,2.82,0,0,1,371.12,362.33Z" transform="translate(-188.94 -54.62)"/><path class="cls-75" d="M369,360.5a1.33,1.33,0,0,1-.7.85l-12.41,7.16a6.32,6.32,0,0,1-5.7,0,2.14,2.14,0,0,1-1.16-1.49,1.92,1.92,0,0,0,1.16,1.82,6.29,6.29,0,0,0,5.7,0l12.41-7.16A1.14,1.14,0,0,0,369,360.5Z" transform="translate(-188.94 -54.62)"/></g><path class="cls-68" d="M398.8,377.76c1.58-.91,1.59-2.39,0-3.3L385.87,367a8.77,8.77,0,0,0-7.95,0c-2.2,1.27-2.21,3.33,0,4.59l11.57,6.68a1,1,0,0,0,.89,0,.27.27,0,0,0,0-.51l-11.57-6.68c-1.7-1-1.69-2.58,0-3.57a6.82,6.82,0,0,1,6.19,0L397.94,375a1.21,1.21,0,0,1,0,2.28,4.37,4.37,0,0,1-3.94,0l-12.41-7.17c-.49-.28-.48-.74,0-1a2,2,0,0,1,1.78,0l10.33,6c.06,0,.06.08,0,.12a.23.23,0,0,1-.2,0l-7.6-4.39a1,1,0,0,0-.88,0c-.25.14-.25.37,0,.51l7.6,4.39a2.15,2.15,0,0,0,2,0c.54-.31.55-.82,0-1.13l-10.34-6a3.91,3.91,0,0,0-3.54,0,1.08,1.08,0,0,0,0,2l12.4,7.17A6.32,6.32,0,0,0,398.8,377.76Z" transform="translate(-188.94 -54.62)"/><path class="cls-76" d="M398.8,377.35c1.58-.91,1.59-2.39,0-3.29l-12.95-7.48a8.8,8.8,0,0,0-7.95,0c-2.2,1.27-2.21,3.33,0,4.59l11.57,6.68a1,1,0,0,0,.89,0,.27.27,0,0,0,0-.51l-11.57-6.68c-1.7-1-1.69-2.58,0-3.57a6.85,6.85,0,0,1,6.19,0l12.95,7.48a1.2,1.2,0,0,1,0,2.27,4.37,4.37,0,0,1-3.94,0l-12.41-7.16a.54.54,0,0,1,0-1,1.93,1.93,0,0,1,1.78,0l10.33,6a.06.06,0,0,1,0,.12.23.23,0,0,1-.2,0l-7.6-4.39a1,1,0,0,0-.88,0c-.25.14-.25.37,0,.51l7.6,4.39a2.18,2.18,0,0,0,2,0c.54-.32.55-.83,0-1.14l-10.34-6a3.91,3.91,0,0,0-3.54,0,1.08,1.08,0,0,0,0,2.05l12.4,7.16A6.32,6.32,0,0,0,398.8,377.35Z" transform="translate(-188.94 -54.62)"/><g class="cls-70"><path class="cls-77" d="M397.94,374.27,385,366.79a6.88,6.88,0,0,0-6.19,0,2.1,2.1,0,0,0-1.27,1.95,2.25,2.25,0,0,1,1.27-1.65,6.85,6.85,0,0,1,6.19,0l12.95,7.48a1.42,1.42,0,0,1,.78,1A1.28,1.28,0,0,0,397.94,374.27Z" transform="translate(-188.94 -54.62)"/><path class="cls-78" d="M381.59,368.66a1.93,1.93,0,0,1,1.78,0l2.35,1.35.18,0,7.6,4.39a.18.18,0,0,0,.2,0c.06,0,.06-.08,0-.11l-10.33-6a2,2,0,0,0-1.78,0,.53.53,0,0,0-.32.67A.66.66,0,0,1,381.59,368.66Z" transform="translate(-188.94 -54.62)"/><path class="cls-79" d="M394.58,375a2.15,2.15,0,0,1-2,0l-7.6-4.39a.34.34,0,0,1-.13-.1c-.1.13-.06.29.13.4l7.6,4.39a2.18,2.18,0,0,0,2,0,.61.61,0,0,0,.36-.72A.74.74,0,0,1,394.58,375Z" transform="translate(-188.94 -54.62)"/><path class="cls-80" d="M390.47,377.46a.43.43,0,0,1-.12.11,1,1,0,0,1-.89,0l-11.57-6.68a2.83,2.83,0,0,1-1.6-2.14,2.66,2.66,0,0,0,1.6,2.43l11.57,6.68a1,1,0,0,0,.89,0C390.54,377.75,390.57,377.59,390.47,377.46Z" transform="translate(-188.94 -54.62)"/><path class="cls-81" d="M398.8,377.05a6.29,6.29,0,0,1-5.7,0l-12.4-7.16a1.28,1.28,0,0,1-.7-.87,1.14,1.14,0,0,0,.7,1.17l12.4,7.16a6.32,6.32,0,0,0,5.7,0,1.93,1.93,0,0,0,1.17-1.8A2.09,2.09,0,0,1,398.8,377.05Z" transform="translate(-188.94 -54.62)"/></g><path class="cls-68" d="M405.62,381c-2.06.32-4.39-.31-5.22-1.4l-6.8-9c-1.15-1.52.24-3.12,3.1-3.56s6.13.43,7.28,1.95l6.07,8c.13.17,0,.35-.34.39a.9.9,0,0,1-.8-.21l-6.08-8c-.9-1.18-3.44-1.86-5.66-1.52s-3.32,1.59-2.42,2.77l6.8,9a4.18,4.18,0,0,0,3.6,1c1.42-.22,2.11-1,1.54-1.76L400.18,370a1.89,1.89,0,0,0-1.63-.43c-.64.1-1,.45-.7.79l5.43,7.18a.22.22,0,0,0,.19.05c.07,0,.11-.05.08-.09l-4-5.28c-.13-.17,0-.34.35-.39a1,1,0,0,1,.8.21l4,5.29c.28.37-.07.76-.77.87a2.08,2.08,0,0,1-1.8-.48l-5.43-7.18c-.51-.67.11-1.39,1.39-1.58a3.75,3.75,0,0,1,3.24.87l6.51,8.61C408.67,379.54,407.67,380.69,405.62,381Z" transform="translate(-188.94 -54.62)"/><path class="cls-82" d="M405.62,380.6c-2.06.31-4.39-.31-5.22-1.4l-6.8-9c-1.15-1.52.24-3.11,3.1-3.56s6.13.44,7.28,2l6.07,8c.13.17,0,.35-.34.4a.9.9,0,0,1-.8-.22l-6.08-8c-.9-1.18-3.44-1.86-5.66-1.52s-3.32,1.59-2.42,2.77l6.8,9a4.18,4.18,0,0,0,3.6,1c1.42-.22,2.11-1,1.54-1.76l-6.51-8.62a1.89,1.89,0,0,0-1.63-.44c-.64.1-1,.46-.7.8l5.43,7.18a.22.22,0,0,0,.19.05c.07,0,.11-.06.08-.09l-4-5.29c-.13-.16,0-.34.35-.39a.92.92,0,0,1,.8.22l4,5.28c.28.37-.07.77-.77.88a2.08,2.08,0,0,1-1.8-.49l-5.43-7.18c-.51-.67.11-1.38,1.39-1.58a3.75,3.75,0,0,1,3.24.87l6.51,8.62C408.67,379.14,407.67,380.28,405.62,380.6Z" transform="translate(-188.94 -54.62)"/><g class="cls-70"><path class="cls-83" d="M399.62,371.54c-.11.08-.15.18-.07.29l3.76,5a.22.22,0,0,0,.16,0c.07,0,.11-.06.08-.09Z" transform="translate(-188.94 -54.62)"/><path class="cls-84" d="M406.69,377.86l-6.51-8.62a1.89,1.89,0,0,0-1.63-.44c-.61.09-.91.42-.72.75a1,1,0,0,1,.72-.38,1.89,1.89,0,0,1,1.63.44l6.51,8.62a.84.84,0,0,1,.17.34A.81.81,0,0,0,406.69,377.86Z" transform="translate(-188.94 -54.62)"/><path class="cls-85" d="M410,376.55a.66.66,0,0,1-.28.11.9.9,0,0,1-.8-.22l-6.08-8c-.9-1.18-3.44-1.86-5.66-1.52-1.82.28-2.85,1.16-2.7,2.11.14-.8,1.12-1.49,2.7-1.74,2.22-.34,4.76.34,5.66,1.52l6.08,8a.9.9,0,0,0,.8.22c.32,0,.47-.23.34-.4Z" transform="translate(-188.94 -54.62)"/><path class="cls-86" d="M396.7,370.14l5.43,7.18a2.08,2.08,0,0,0,1.8.49c.66-.11,1-.45.79-.81a1.07,1.07,0,0,1-.79.44,2.08,2.08,0,0,1-1.8-.49l-5.43-7.18a.92.92,0,0,1-.14-.28A.7.7,0,0,0,396.7,370.14Z" transform="translate(-188.94 -54.62)"/><path class="cls-87" d="M405.62,380.23c-2.06.31-4.39-.31-5.22-1.4l-6.8-9a1.8,1.8,0,0,1-.37-.91,1.66,1.66,0,0,0,.37,1.28l6.8,9c.83,1.09,3.16,1.71,5.22,1.4,1.67-.26,2.63-1.08,2.48-2C408,379.37,407.06,380,405.62,380.23Z" transform="translate(-188.94 -54.62)"/></g><path class="cls-88" d="M342.3,251.41l-29-16.48c-.07,3.86,0,29,0,32.94,0,6.4-1,11.44-8.39,17.23-2.35,1.84-7.14,4-15.56,8.45-3.42,1.8-5.27,5.21-7,6.67s-14.65,8.87-15.4,9.31l28.82,16.66c.54-.32,13.74-7.86,15.58-9.42s3.58-5.67,7-7.47c8.41-4.42,17.26-9.82,19.82-11.36,3.28-2,4.12-3.21,4.12-8.39C342.27,285.57,342.23,255.2,342.3,251.41Z" transform="translate(-188.94 -54.62)"/><path class="cls-89" d="M342.3,249.51l-29-16.48c-.07,3.86,0,29,0,32.94,0,6.4-1,11.44-8.39,17.23-2.35,1.84-7.14,4-15.56,8.46-3.42,1.79-5.56,6.73-7.29,8.19s-13.93,7.94-14.68,8.38l28.82,16.66c.54-.32,13-6.93,14.87-8.49s3.87-6.4,7.29-8.19c8.41-4.43,13.21-6.62,15.56-8.46,7.39-5.79,8.35-10.83,8.38-17.23C342.29,278.54,342.23,253.3,342.3,249.51Z" transform="translate(-188.94 -54.62)"/><path class="cls-90" d="M313.27,267.34v-.15c0,.47,0,.5,0,.52S313.27,267.46,313.27,267.34Z" transform="translate(-188.94 -54.62)"/><path class="cls-91" d="M311,317.77c-1.84,1.56-14.33,8.17-14.87,8.49l-26.68-15.42c-1.15.62-2-.31-2.14-.21l28.82,16.66c.54-.32,13-6.93,14.87-8.49Z" transform="translate(-188.94 -54.62)"/><path class="cls-92" d="M315.34,267.91c0,.55,0,1.11-.11,1.67l18.59,10.79c0-.56,0-1.13.05-1.71Z" transform="translate(-188.94 -54.62)"/><path class="cls-93" d="M334.85,268v1.74l5.3,3.07v-1.73Z" transform="translate(-188.94 -54.62)"/><path class="cls-93" d="M334.84,252.87l5.31,3.08v-1.74l-5.31-3.08Z" transform="translate(-188.94 -54.62)"/><path class="cls-93" d="M334.85,275.35l5.3,3.08v-1.74l-5.3-3.08Z" transform="translate(-188.94 -54.62)"/><path class="cls-92" d="M333.88,269.16v-1.73l-18.48-10.74v1.74Z" transform="translate(-188.94 -54.62)"/><path class="cls-93" d="M334.84,258.49l5.3,3.07v-1.73l-5.3-3.08Z" transform="translate(-188.94 -54.62)"/><path class="cls-92" d="M333.87,256.18l-18.49-10.73v1.74l18.49,10.73Z" transform="translate(-188.94 -54.62)"/><path class="cls-93" d="M340.14,265.45l-5.3-3.08v1.74l5.31,3.07C340.15,266.6,340.14,266,340.14,265.45Z" transform="translate(-188.94 -54.62)"/><path class="cls-93" d="M314.12,302.64l4.86,2.83,1.58-.82-4.86-2.82Z" transform="translate(-188.94 -54.62)"/><path class="cls-93" d="M319.25,300l4.86,2.82,1.59-.81-4.87-2.83C320.33,299.44,319.81,299.72,319.25,300Z" transform="translate(-188.94 -54.62)"/><path class="cls-93" d="M328.49,294.13l5.21,3c.42-.36.81-.71,1.18-1.06L329.61,293C329.26,293.4,328.89,293.77,328.49,294.13Z" transform="translate(-188.94 -54.62)"/><path class="cls-93" d="M324.28,297.3l4.93,2.86c.56-.3,1.05-.58,1.51-.85l-5-2.91C325.29,296.69,324.82,297,324.28,297.3Z" transform="translate(-188.94 -54.62)"/><path class="cls-93" d="M334.78,280.93l5.34,3.09c0-.49,0-1,0-1.51v-.2l-5.31-3.09Q334.83,280.09,334.78,280.93Z" transform="translate(-188.94 -54.62)"/><path class="cls-93" d="M333.92,286.05l5.46,3.16c.15-.5.27-1,.37-1.52l-5.43-3.15C334.21,285.05,334.08,285.55,333.92,286.05Z" transform="translate(-188.94 -54.62)"/><path class="cls-93" d="M331.79,290.42l5.37,3.12c.31-.42.59-.83.84-1.24l-5.42-3.15C332.34,289.57,332.08,290,331.79,290.42Z" transform="translate(-188.94 -54.62)"/><path class="cls-93" d="M306.13,309.24l5.38,3.13c.27-.4.56-.82.86-1.24L307,308C306.7,308.43,306.41,308.84,306.13,309.24Z" transform="translate(-188.94 -54.62)"/><path class="cls-92" d="M302.64,312.16a6.18,6.18,0,0,0,.66-.68l-18.95-11a7.49,7.49,0,0,1-.94,1l-.15.12,18.87,11A4.49,4.49,0,0,0,302.64,312.16Z" transform="translate(-188.94 -54.62)"/><path class="cls-92" d="M309.82,304l-18.76-10.89-.75.39a5.48,5.48,0,0,0-.74.48l18.89,11A7.74,7.74,0,0,1,309.82,304Z" transform="translate(-188.94 -54.62)"/><path class="cls-93" d="M309.29,305.46l5.24,3a14.58,14.58,0,0,1,1.16-1.06l-5.08-2.95A8.6,8.6,0,0,0,309.29,305.46Z" transform="translate(-188.94 -54.62)"/><path class="cls-93" d="M303.62,312.52c-.16.13-.39.3-.68.49l5,2.91c.64-.38,1.11-.69,1.42-.91l-5.22-3A5.64,5.64,0,0,1,303.62,312.52Z" transform="translate(-188.94 -54.62)"/><path class="cls-93" d="M298.16,315.85l4.92,2.86,1.52-.85L299.67,315Z" transform="translate(-188.94 -54.62)"/><path class="cls-93" d="M296.18,290.49l-1.59.82,5.81,3.37,1.58-.82Z" transform="translate(-188.94 -54.62)"/><path class="cls-92" d="M301.18,295.13l12.16,7.06,1.58-.82-12.16-7.06Z" transform="translate(-188.94 -54.62)"/><path class="cls-92" d="M314.66,290c-.43.29-.92.58-1.46.89l10.28,6c.54-.32,1-.62,1.43-.91Z" transform="translate(-188.94 -54.62)"/><path class="cls-93" d="M306,285c-.41.31-.86.62-1.37.94l7.74,4.49c.54-.31,1-.61,1.45-.89Z" transform="translate(-188.94 -54.62)"/><path class="cls-93" d="M309.83,281.56c-.35.37-.71.73-1.09,1.1l10.52,6.11c.4-.36.77-.72,1.12-1.08Z" transform="translate(-188.94 -54.62)"/><path class="cls-92" d="M321.23,288.18c-.36.35-.74.71-1.14,1.07l7.57,4.4c.4-.37.77-.73,1.11-1.09Z" transform="translate(-188.94 -54.62)"/><path class="cls-93" d="M314.64,273.11c-.13.49-.29,1-.46,1.48l8,4.63a15,15,0,0,0,.4-1.5Z" transform="translate(-188.94 -54.62)"/><path class="cls-92" d="M323.5,278.26c-.12.5-.25,1-.42,1.5l9.93,5.75c.15-.5.28-1,.38-1.51Z" transform="translate(-188.94 -54.62)"/><path class="cls-93" d="M321.68,266l-6.29-3.65v1.73l6.29,3.65Z" transform="translate(-188.94 -54.62)"/><path class="cls-92" d="M322.65,268.27l11.23,6.51v-1.73l-11.23-6.52Z" transform="translate(-188.94 -54.62)"/><path class="cls-92" d="M326.16,259.07l7.71,4.47V261.8l-7.71-4.47Z" transform="translate(-188.94 -54.62)"/><path class="cls-93" d="M315.38,251.07v1.74l9.81,5.69v-1.74Z" transform="translate(-188.94 -54.62)"/><path class="cls-93" d="M315.38,239.84v1.73l7.75,4.5v-1.73Z" transform="translate(-188.94 -54.62)"/><path class="cls-92" d="M324.11,244.9c0,.55,0,1.13,0,1.73l9.77,5.67v-1.73Z" transform="translate(-188.94 -54.62)"/><path class="cls-93" d="M295.2,301.17l-8-4.65c-.31.41-.61.82-.89,1.23l8,4.64C294.61,302,294.9,301.58,295.2,301.17Z" transform="translate(-188.94 -54.62)"/><path class="cls-92" d="M295.2,302.9l10.06,5.84c.28-.4.58-.81.89-1.22l-10.08-5.85C295.76,302.08,295.47,302.5,295.2,302.9Z" transform="translate(-188.94 -54.62)"/><path class="cls-93" d="M283.26,305.47l-3.2-1.85-1.5.86,3.18,1.85Z" transform="translate(-188.94 -54.62)"/><path class="cls-92" d="M282.53,306.78l14.84,8.61,1.51-.86-14.83-8.6Z" transform="translate(-188.94 -54.62)"/><path class="cls-93" d="M312.78,277.65c-.25.43-.52.85-.81,1.27l8,4.66c.29-.43.56-.85.8-1.27Z" transform="translate(-188.94 -54.62)"/><path class="cls-92" d="M321.68,282.82c-.25.42-.53.84-.83,1.26l10.06,5.84c.29-.43.55-.86.79-1.28Z" transform="translate(-188.94 -54.62)"/><path class="cls-92" d="M308.15,293.56l10.32,6,1.58-.82-10.32-6Z" transform="translate(-188.94 -54.62)"/><path class="cls-93" d="M301.29,287.84c-.49.27-1,.54-1.57.83l7.65,4.44,1.58-.82Z" transform="translate(-188.94 -54.62)"/><polygon class="cls-94" points="143.9 182.49 138.99 186.42 134.07 176.82 143.9 182.49"/><g class="cls-95"><polygon class="cls-96" points="139.27 185.86 134.88 177.28 134.07 176.82 138.99 186.42 143.9 182.49 143.66 182.35 139.27 185.86"/></g><g class="cls-97"><path class="cls-98" d="M233.93,87.43v-3.3l5.57-1.94-5.57-8.38V68.53l10.2,15.34Zm1-2.59V86l7.65-2.68-7.65-11.51v1.67l6.12,9.2Z" transform="translate(-188.94 -54.62)"/></g><g class="cls-99"><path class="cls-98" d="M209.61,73.52v-3.3l5.57-1.94-5.57-8.38V54.62L219.81,70Zm1-2.59v1.18l7.65-2.67-7.65-11.51v1.66l6.12,9.21Z" transform="translate(-188.94 -54.62)"/></g><g class="cls-100"><path class="cls-98" d="M221.77,80.48v-3.3l5.57-2-5.57-8.38V61.58L232,76.92Zm1-2.59v1.18l7.65-2.67-7.65-11.51v1.66l6.12,9.2Z" transform="translate(-188.94 -54.62)"/></g><g class="cls-101"><path class="cls-98" d="M258.25,101.34V98l5.57-1.94-5.57-8.38V82.44l10.2,15.34Zm1-2.59v1.19l7.66-2.67-7.66-11.52v1.67l6.12,9.2Z" transform="translate(-188.94 -54.62)"/></g><g class="cls-102"><path class="cls-98" d="M246.09,94.39v-3.3l5.57-2-5.57-8.38V75.49l10.2,15.34Zm1-2.59V93l7.65-2.67L247.09,78.8v1.66l6.12,9.2Z" transform="translate(-188.94 -54.62)"/></g><g class="cls-97"><path class="cls-98" d="M230.6,208.1v-3.3l5.57-2-5.57-8.37V189.2l10.2,15.34Zm1-2.59v1.18l7.65-2.67-7.65-11.51v1.66l6.12,9.2Z" transform="translate(-188.94 -54.62)"/></g><g class="cls-99"><path class="cls-98" d="M206.27,194.19v-3.3l5.58-1.95-5.58-8.38v-5.27l10.21,15.34Zm1-2.59v1.18l7.66-2.67-7.66-11.51v1.66l6.13,9.2Z" transform="translate(-188.94 -54.62)"/></g><g class="cls-100"><path class="cls-98" d="M218.44,201.14v-3.3L224,195.9l-5.57-8.38v-5.28l10.2,15.35Zm1-2.59v1.19l7.65-2.67-7.65-11.52v1.67l6.12,9.2Z" transform="translate(-188.94 -54.62)"/></g><g class="cls-101"><path class="cls-98" d="M254.92,222v-3.3l5.57-1.94-5.57-8.38v-5.28l10.2,15.34Zm1-2.59v1.18l7.65-2.67-7.65-11.51v1.66l6.12,9.2Z" transform="translate(-188.94 -54.62)"/></g><g class="cls-102"><path class="cls-98" d="M242.76,215.06v-3.31l5.57-1.94-5.57-8.38v-5.27L253,211.5Zm1-2.6v1.19l7.65-2.67-7.65-11.52v1.67l6.12,9.2Z" transform="translate(-188.94 -54.62)"/></g><g class="cls-97"><path class="cls-98" d="M213.26,106.77v-3.31l5.58-1.94-5.58-8.38V87.87l10.21,15.34Zm1-2.59v1.18l7.66-2.67-7.66-11.51v1.66l6.12,9.2Z" transform="translate(-188.94 -54.62)"/></g><g class="cls-99"><path class="cls-98" d="M188.94,92.86V89.55l5.57-1.94-5.57-8.38V74l10.2,15.34Zm1-2.6v1.19l7.66-2.67-7.66-11.52v1.67l6.12,9.2Z" transform="translate(-188.94 -54.62)"/></g><g class="cls-100"><path class="cls-98" d="M201.1,99.81v-3.3l5.58-1.94-5.58-8.38V80.91l10.2,15.34Zm1-2.59V98.4l7.66-2.67L202.1,84.22v1.66l6.12,9.21Z" transform="translate(-188.94 -54.62)"/></g><g class="cls-101"><path class="cls-98" d="M237.58,120.68v-3.3l5.58-1.95-5.58-8.38v-5.27l10.21,15.34Zm1-2.59v1.18l7.66-2.67-7.66-11.51v1.66l6.12,9.2Z" transform="translate(-188.94 -54.62)"/></g><g class="cls-102"><path class="cls-98" d="M225.42,113.72v-3.3l5.58-1.94-5.58-8.38V94.82l10.21,15.34Zm1-2.59v1.18l7.66-2.67-7.66-11.51v1.66l6.12,9.21Z" transform="translate(-188.94 -54.62)"/></g><g class="cls-103"><path class="cls-104" d="M439.22,213.32c-4.94-2.85-9-.57-9,5.1v32.22c0,5.67,4,12.58,9,15.44l62.51,36.46c4.94,2.85,10.93.25,10.93-5.42V264.9c0-5.67-6-12.27-10.93-15.12l-32-18.64-15.49-20L443.88,216Z" transform="translate(-188.94 -54.62)"/><path class="cls-105" d="M430.05,218.79v31.6c0,5.64,4,12.52,8.91,15.36L501.07,302a11.72,11.72,0,0,0,1.24.6c4.67,1.85,9.57-.69,9.57-5.9v-31.6c0-5.64-5.79-12.23-10.71-15.07l-31.59-18.43-15.84-19.23-10.25,4-3.72-2.17-.89-.51C433.89,211.1,430.05,213.18,430.05,218.79Z" transform="translate(-188.94 -54.62)"/><path class="cls-106" d="M429.83,219.17v31c0,5.62,4,12.46,8.86,15.29l61.72,36c.34.19.89.47,1.23.61,4.68,1.89,9.45-.57,9.45-5.8v-31c0-5.61-5.58-12.2-10.48-15L469.37,232,453.2,213.59l-10.1,3.1-3.68-2.15-.88-.5C433.62,211.51,429.83,213.61,429.83,219.17Z" transform="translate(-188.94 -54.62)"/><path class="cls-107" d="M429.61,219.54v30.34c0,5.59,3.95,12.4,8.81,15.21l61.33,35.77c.3.17.91.49,1.22.62,4.69,1.93,9.34-.45,9.34-5.7V265.44c0-5.58-5.39-12.16-10.26-15l-30.88-18-16.51-17.63-10,2.19-3.64-2.12-.87-.49C433.35,211.93,429.61,214,429.61,219.54Z" transform="translate(-188.94 -54.62)"/><path class="cls-108" d="M429.39,219.92v29.7c0,5.56,3.92,12.34,8.77,15.14l60.93,35.54c.26.15.94.51,1.2.62,4.72,2,9.24-.33,9.24-5.58V265.63c0-5.56-5.19-12.14-10-14.94L469,232.88l-16.85-16.82-9.8,1.28-3.59-2.1-.87-.48C433.09,212.35,429.39,214.47,429.39,219.92Z" transform="translate(-188.94 -54.62)"/><path class="cls-109" d="M429.16,220.29v29.08c0,5.53,3.91,12.27,8.73,15.06l60.54,35.31c.22.13,1,.53,1.19.63,4.74,2,9.12-.21,9.12-5.48V265.81c0-5.53-5-12.1-9.81-14.89l-30.17-17.6-17.19-16-9.64.37-3.55-2.07c-.12-.08-.74-.42-.86-.48C432.82,212.77,429.16,214.9,429.16,220.29Z" transform="translate(-188.94 -54.62)"/><path class="cls-110" d="M428.94,220.66v28.46c0,5.5,3.89,12.21,8.69,15l60.14,35.08c.19.11,1,.55,1.18.63,4.75,2.08,9-.08,9-5.37V266c0-5.5-4.79-12.07-9.58-14.84l-29.82-17.4L451,218.54l-9.49-.55L438,216l-.84-.47C432.55,213.18,428.94,215.33,428.94,220.66Z" transform="translate(-188.94 -54.62)"/><path class="cls-111" d="M428.72,221v27.82c0,5.48,3.87,12.15,8.64,14.91l59.75,34.85c.15.09,1,.57,1.16.64,4.78,2.13,8.91,0,8.91-5.26V266.17c0-5.47-4.59-12-9.36-14.79l-29.47-17.19-17.86-14.42-9.34-1.45-3.46-2-.84-.46C432.28,213.6,428.72,215.76,428.72,221Z" transform="translate(-188.94 -54.62)"/><path class="cls-112" d="M428.5,221.41v27.2c0,5.45,3.85,12.09,8.6,14.83l59.35,34.63c.11.06,1,.58,1.15.63,4.8,2.18,8.79.17,8.79-5.15V266.36c0-5.45-4.38-12-9.13-14.75l-29.11-17L450,221l-9.19-2.37-3.42-2c-.2-.11-.64-.36-.83-.45C432,214,428.5,216.19,428.5,221.41Z" transform="translate(-188.94 -54.62)"/><path class="cls-113" d="M428.28,221.78v26.57c0,5.42,3.83,12,8.55,14.76l59,34.4,1.14.64c4.82,2.23,8.68.29,8.68-5V266.54c0-5.42-4.19-12-8.91-14.7l-28.76-16.78-18.53-12.81-9-3.28L437,217c-.22-.13-.6-.34-.82-.44C431.74,214.43,428.28,216.62,428.28,221.78Z" transform="translate(-188.94 -54.62)"/><path class="cls-114" d="M428.05,222.16V248.1c0,5.39,3.82,12,8.52,14.68L495.12,297s1.09.63,1.13.64c4.85,2.28,8.58.42,8.58-4.93V266.72c0-5.39-4-11.94-8.69-14.65l-28.4-16.57-18.88-12L440,219.3l-3.33-2c-.25-.14-.58-.32-.82-.43C431.46,214.85,428.05,217.05,428.05,222.16Z" transform="translate(-188.94 -54.62)"/><path class="cls-115" d="M436.3,217.7c-4.68-2.7-8.47-.53-8.47,4.83v25.31c0,5.37,3.79,11.91,8.47,14.61L495.58,297c4.67,2.7,8.47.54,8.47-4.83V266.9c0-5.36-3.8-11.9-8.47-14.6Z" transform="translate(-188.94 -54.62)"/></g><path class="cls-116" d="M499.72,254l-32.74-19-13.42-23.16-13.34,7.6-5.62-3.26c-4.34-2.51-7.9.17-7.9,6v27.37c0,5.79,3.56,12.58,7.9,15.09l65.12,37.85c4.34,2.51,7.9-.18,7.9-6V269C507.62,263.25,504.06,256.46,499.72,254Z" transform="translate(-188.94 -54.62)"/><path class="cls-117" d="M499.72,254l-32.74-19-13.42-23.16-13.34,7.6-5.62-3.26c-4.34-2.51-7.9.17-7.9,6v1.06c0-5.79,3.56-8.48,7.9-6l5.62,3.27,13.34-7.61L467,236l32.74,19c4.34,2.51,7.9,9.3,7.9,15.09V269C507.62,263.25,504.06,256.46,499.72,254Z" transform="translate(-188.94 -54.62)"/><polygon class="cls-118" points="247.37 201.23 309.9 237.34 309.9 227.09 247.37 190.98 247.37 201.23"/><polygon class="cls-118" points="290.37 199.25 290.37 209.5 309.9 220.78 309.9 210.53 290.37 199.25"/><polygon class="cls-119" points="309.9 219.02 292 208.68 292 200.19 290.37 199.25 290.37 209.5 309.9 220.78 309.9 219.02"/><polygon class="cls-118" points="247.37 174.42 247.37 184.67 287.93 208.03 287.93 197.78 247.37 174.42"/><polygon class="cls-120" points="287.93 206.28 249 183.86 249 175.36 247.37 174.42 247.37 184.67 287.93 208.03 287.93 206.28"/><polygon class="cls-121" points="309.9 235.59 249 200.42 249 191.92 247.37 190.98 247.37 201.23 309.9 237.34 309.9 235.59"/><g class="cls-122"><path class="cls-123" d="M399.85,263.78c-2.68-1.55-4.86-.31-4.86,2.77v20.83a10.72,10.72,0,0,0,4.86,8.39l22.67,13.05c2.69,1.55,5.94.14,5.94-2.94V285.05c0-3.09-3.25-6.67-5.94-8.22Z" transform="translate(-188.94 -54.62)"/><path class="cls-124" d="M398.66,264.52c-2.69-1.56-4.88-.32-4.88,2.78v20.63a10.77,10.77,0,0,0,4.88,8.42l22.69,13.06c2.7,1.56,5.86.16,5.86-2.94V285.84c0-3.09-3.16-6.71-5.86-8.26Z" transform="translate(-188.94 -54.62)"/><path class="cls-125" d="M397.47,265.25c-2.7-1.56-4.89-.31-4.89,2.79v20.44a10.77,10.77,0,0,0,4.89,8.44L420.18,310c2.7,1.56,5.78.17,5.78-2.93V286.63c0-3.1-3.08-6.74-5.78-8.3Z" transform="translate(-188.94 -54.62)"/><path class="cls-126" d="M396.28,266c-2.71-1.56-4.9-.31-4.9,2.8V289a10.79,10.79,0,0,0,4.9,8.46L419,310.58c2.71,1.57,5.69.19,5.69-2.92V287.42c0-3.11-3-6.78-5.69-8.35Z" transform="translate(-188.94 -54.62)"/><path class="cls-127" d="M395.09,266.73c-2.71-1.57-4.92-.31-4.92,2.81v20a10.87,10.87,0,0,0,4.92,8.49l22.75,13.09c2.72,1.57,5.61.21,5.61-2.91V288.21c0-3.12-2.89-6.82-5.61-8.39Z" transform="translate(-188.94 -54.62)"/><path class="cls-128" d="M393.91,267.47c-2.73-1.58-4.94-.32-4.94,2.81v19.86a10.85,10.85,0,0,0,4.94,8.51l22.76,13.11c2.73,1.57,5.52.22,5.52-2.91V289c0-3.13-2.79-6.85-5.52-8.43Z" transform="translate(-188.94 -54.62)"/><path class="cls-129" d="M392.72,268.21c-2.74-1.58-5-.32-5,2.82v19.66a10.9,10.9,0,0,0,5,8.54l22.78,13.11c2.73,1.58,5.44.24,5.44-2.9V289.79c0-3.14-2.71-6.89-5.44-8.47Z" transform="translate(-188.94 -54.62)"/><path class="cls-130" d="M391.53,268.94c-2.75-1.58-5-.31-5,2.84v19.46a10.94,10.94,0,0,0,5,8.57l22.8,13.12c2.74,1.59,5.36.25,5.36-2.89V290.58c0-3.15-2.62-6.93-5.36-8.51Z" transform="translate(-188.94 -54.62)"/><path class="cls-131" d="M390.34,269.68c-2.76-1.59-5-.31-5,2.84v19.27a10.94,10.94,0,0,0,5,8.59l22.81,13.14c2.76,1.59,5.28.27,5.28-2.89V291.37c0-3.16-2.52-7-5.28-8.55Z" transform="translate(-188.94 -54.62)"/><path class="cls-132" d="M389.15,270.42c-2.76-1.59-5-.32-5,2.85v19.07a11,11,0,0,0,5,8.62L412,314.1c2.76,1.6,5.2.29,5.2-2.88V292.16c0-3.17-2.44-7-5.2-8.6Z" transform="translate(-188.94 -54.62)"/><path class="cls-133" d="M388,271.16c-2.77-1.6-5-.32-5,2.86v18.87a11.05,11.05,0,0,0,5,8.65l22.85,13.15c2.77,1.6,5.11.3,5.11-2.87V293a11.13,11.13,0,0,0-5.11-8.64Z" transform="translate(-188.94 -54.62)"/><path class="cls-134" d="M386.77,271.9c-2.78-1.61-5-.32-5,2.87v18.67a11.06,11.06,0,0,0,5,8.67l22.87,13.17c2.78,1.6,5,.32,5-2.87V293.74a11.08,11.08,0,0,0-5-8.68Z" transform="translate(-188.94 -54.62)"/></g><path class="cls-135" d="M386.63,271c-2.79-1.61-5.05-.32-5.05,2.88v21.53a11.12,11.12,0,0,0,5.05,8.71l23,13.23c2.79,1.61,5.05.32,5.05-2.88V292.89a11.12,11.12,0,0,0-5.05-8.71Z" transform="translate(-188.94 -54.62)"/><path class="cls-136" d="M409.61,284.18l-23-13.23c-2.79-1.61-5.05-.32-5.05,2.88v.49c0-3.2,2.26-4.49,5.05-2.88l23,13.23a11.11,11.11,0,0,1,5.05,8.7v-.48A11.12,11.12,0,0,0,409.61,284.18Z" transform="translate(-188.94 -54.62)"/><path class="cls-118" d="M388.57,281.34v16.25l18.25,10.54V291.88Zm17.08,24.78-15.92-9.19V283.35l15.92,9.19Zm-5.11-12.26-2.85,3.81-2.26-2.82-4.53,1.41,13.58,7.84Zm-6.21-1.32c1,.59,1.83.12,1.83-1a4,4,0,0,0-1.83-3.15c-1-.58-1.82-.11-1.82,1A4,4,0,0,0,394.33,292.54Z" transform="translate(-188.94 -54.62)"/><g class="cls-122"><path class="cls-137" d="M345.52,123.29c-2.13-1.22-3.85-.24-3.85,2.2V142a8.44,8.44,0,0,0,3.85,6.63l43.3,25.27c2.13,1.22,4.7.11,4.7-2.33V155.06c0-2.44-2.57-5.28-4.7-6.5Z" transform="translate(-188.94 -54.62)"/><path class="cls-138" d="M344.58,123.88c-2.13-1.23-3.86-.25-3.86,2.2v16.33a8.5,8.5,0,0,0,3.86,6.65l43.32,25.27c2.13,1.23,4.63.12,4.63-2.32V155.68c0-2.44-2.5-5.3-4.63-6.53Z" transform="translate(-188.94 -54.62)"/><path class="cls-139" d="M343.64,124.46c-2.14-1.23-3.87-.24-3.87,2.21v16.17a8.54,8.54,0,0,0,3.87,6.68L387,174.79c2.14,1.24,4.57.14,4.57-2.31V156.31c0-2.46-2.43-5.34-4.57-6.57Z" transform="translate(-188.94 -54.62)"/><path class="cls-140" d="M342.7,125.05c-2.15-1.24-3.89-.25-3.89,2.21v16A8.54,8.54,0,0,0,342.7,150L386,175.26c2.15,1.24,4.5.15,4.5-2.31v-16c0-2.46-2.35-5.36-4.5-6.6Z" transform="translate(-188.94 -54.62)"/><path class="cls-141" d="M341.76,125.63c-2.16-1.24-3.9-.25-3.9,2.22v15.86a8.56,8.56,0,0,0,3.9,6.72l43.36,25.29c2.15,1.24,4.43.16,4.43-2.3V157.56c0-2.47-2.28-5.39-4.43-6.64Z" transform="translate(-188.94 -54.62)"/><path class="cls-142" d="M340.81,126.21c-2.15-1.24-3.9-.24-3.9,2.23v15.71a8.64,8.64,0,0,0,3.9,6.74l43.38,25.3c2.16,1.24,4.37.17,4.37-2.3V158.18c0-2.48-2.21-5.42-4.37-6.66Z" transform="translate(-188.94 -54.62)"/><path class="cls-143" d="M339.87,126.8c-2.16-1.25-3.92-.25-3.92,2.23v15.55a8.64,8.64,0,0,0,3.92,6.76l43.39,25.31c2.17,1.25,4.31.19,4.31-2.3V158.81c0-2.49-2.14-5.45-4.31-6.7Z" transform="translate(-188.94 -54.62)"/><path class="cls-144" d="M338.93,127.38c-2.17-1.25-3.93-.25-3.93,2.24V145a8.67,8.67,0,0,0,3.93,6.78l43.41,25.31c2.17,1.26,4.24.21,4.24-2.29V159.43c0-2.49-2.07-5.48-4.24-6.73Z" transform="translate(-188.94 -54.62)"/><path class="cls-145" d="M338,128c-2.18-1.26-3.94-.25-3.94,2.24v15.24a8.66,8.66,0,0,0,3.94,6.8l43.42,25.33c2.18,1.26,4.17.21,4.17-2.29V160.06a8.88,8.88,0,0,0-4.17-6.77Z" transform="translate(-188.94 -54.62)"/><path class="cls-146" d="M337.05,128.55c-2.18-1.26-3.95-.25-3.95,2.26v15.08a8.73,8.73,0,0,0,3.95,6.82L380.48,178c2.19,1.26,4.11.23,4.11-2.28V160.68a8.82,8.82,0,0,0-4.11-6.8Z" transform="translate(-188.94 -54.62)"/><path class="cls-147" d="M336.11,129.13c-2.19-1.26-4-.25-4,2.27v14.92a8.76,8.76,0,0,0,4,6.85l43.45,25.34c2.19,1.26,4,.24,4-2.28V161.31a8.82,8.82,0,0,0-4-6.84Z" transform="translate(-188.94 -54.62)"/><path class="cls-148" d="M335.17,129.72c-2.2-1.27-4-.25-4,2.27v14.77a8.76,8.76,0,0,0,4,6.86L378.63,179c2.2,1.27,4,.25,4-2.27V161.93a8.76,8.76,0,0,0-4-6.86Z" transform="translate(-188.94 -54.62)"/></g><path class="cls-149" d="M335.06,129c-2.21-1.28-4-.26-4,2.27v17a8.81,8.81,0,0,0,4,6.89l43.55,25.4c2.2,1.27,4,.25,4-2.28v-17a8.81,8.81,0,0,0-4-6.89Z" transform="translate(-188.94 -54.62)"/><path class="cls-150" d="M378.61,154.37,335.06,129c-2.21-1.28-4-.26-4,2.27v.39c0-2.53,1.79-3.55,4-2.28l43.55,25.41a8.79,8.79,0,0,1,4,6.88v-.38A8.81,8.81,0,0,0,378.61,154.37Z" transform="translate(-188.94 -54.62)"/><polygon class="cls-118" points="145.73 89.67 149.41 95.99 157.35 89.35 155.1 86.29 149.63 93.87 148.69 89.26 145.73 89.67"/><polygon class="cls-118" points="174.26 108.04 159.51 99.58 159.51 101.16 174.26 109.62 174.26 108.04"/><polygon class="cls-118" points="181.3 102.66 159.51 90.24 159.51 93.15 181.3 105.57 181.3 102.66"/><polygon class="cls-118" points="169.85 102.25 159.51 96.29 159.51 97.87 169.85 103.83 169.85 102.25"/><polygon class="cls-118" points="171.41 103.15 171.41 104.73 182.9 111.17 182.9 109.59 171.41 103.15"/><polygon class="cls-118" points="175.82 108.94 175.82 110.52 178.12 111.86 178.12 110.28 175.82 108.94"/><polygon class="cls-118" points="184.46 112.07 188.75 114.57 188.75 112.99 184.46 110.49 184.46 112.07"/><polygon class="cls-118" points="179.67 112.76 188.75 117.86 188.75 116.27 179.67 111.17 179.67 112.76"/><ellipse class="cls-151" cx="457.88" cy="192.73" rx="11.13" ry="19.28" transform="translate(-223.62 202.81) rotate(-30.31)"/><path class="cls-152" d="M470.39,200.83c0,4.15-1.43,7.08-3.76,8.51L463.89,211c-2.43,1.36-.88-1.72-4.55-3.84-7.4-4.27-13.4-14.62-13.4-23.11,0-4.2-3.88-4.23-1.51-5.63l3.21-1.76c2.41-1.3,5.71-1.06,9.35,1C464.39,182,470.39,192.34,470.39,200.83Z" transform="translate(-188.94 -54.62)"/><ellipse class="cls-153" cx="453.91" cy="194.89" rx="10.91" ry="18.89" transform="translate(-225.25 201.1) rotate(-30.31)"/><path class="cls-154" d="M454.55,179.19c-3.55-2.05-6.77-2.32-9.17-1.12,2.24-.63,5-.16,8,1.57,7.4,4.27,13.4,14.62,13.4,23.11,0,4.42-1.63,7.46-4.23,8.77,3.27-.92,5.39-4.17,5.39-9.22C468,193.81,462,183.46,454.55,179.19Z" transform="translate(-188.94 -54.62)"/><path class="cls-118" d="M461.66,196.66l-4.81-2.78v-5.53a1.68,1.68,0,0,0-.77-1.32l-4.39-2.54c-.42-.24-.77-.05-.77.44v5.53l-4.82-2.78c-.42-.25-.76-.05-.76.44v5a1.71,1.71,0,0,0,.76,1.33l4.82,2.78v5.52a1.7,1.7,0,0,0,.77,1.33l4.39,2.53c.42.25.77.05.77-.43v-5.53l4.81,2.78c.43.24.77,0,.77-.44v-5A1.69,1.69,0,0,0,461.66,196.66Z" transform="translate(-188.94 -54.62)"/><path class="cls-155" d="M313.1,356.58l-64.45-37c-1.21-.69-8.52-5.93-7.13-6.74l2.36-.82a5.26,5.26,0,0,1,4.72-.19l71.83,40.76c1.21.7,1.06,1.92-.33,2.73l-2.28,1.11A5.26,5.26,0,0,1,313.1,356.58Z" transform="translate(-188.94 -54.62)"/><path class="cls-156" d="M250.26,319.49l3.49-7.25s-11.12-2.42-11.57-1.63S250.26,319.49,250.26,319.49Z" transform="translate(-188.94 -54.62)"/><path class="cls-157" d="M319.22,349.67l-64.74-37.11a3,3,0,0,0-1.49-.4h-1.33a.63.63,0,0,0-.54,1l.94,1.15,65.65,37.89Z" transform="translate(-188.94 -54.62)"/><path class="cls-158" d="M317.72,351.7,252,314.16l-1.48.62a.62.62,0,0,0-.5.87l.72,1.58,65,37.22Z" transform="translate(-188.94 -54.62)"/><path class="cls-159" d="M315.75,354.45l-.39,2.4L250.51,319.7a1.45,1.45,0,0,1-.72-1.1l-.08-.72a.5.5,0,0,1,.48-.65h.59Z" transform="translate(-188.94 -54.62)"/><path class="cls-160" d="M245.32,310.67a6.27,6.27,0,0,0-1.49,2.36c-1.06-1.21-1.79-2.18-1.65-2.42S243.63,310.44,245.32,310.67Z" transform="translate(-188.94 -54.62)"/><polygon class="cls-156" points="125.82 299.28 126.44 302.19 129.2 301.06 130.78 298.09 130.23 295.01 127.41 296.31 125.82 299.28"/><path class="cls-161" d="M316.54,354.64c-.41-.23-.42-1,0-1.69s1.05-1.09,1.46-.85.42,1,0,1.69S317,354.87,316.54,354.64Z" transform="translate(-188.94 -54.62)"/><ellipse class="cls-162" cx="284.8" cy="160.67" rx="27.05" ry="46.86" transform="translate(-231.1 111.08) rotate(-30.31)"/><path class="cls-163" d="M274.87,167.49v41c-15.8-9.12-29.13-27.93-34-48Z" transform="translate(-188.94 -54.62)"/><polygon class="cls-164" points="85.93 153.91 89.13 152.04 89.07 111.46 85.93 112.87 85.93 153.91"/><polygon class="cls-165" points="51.92 105.92 55.12 104.05 89.13 111.01 85.93 112.87 51.92 105.92"/><path class="cls-166" d="M305,169.45c-4.63-19-19.92-36.77-34.15-39.68a15.1,15.1,0,0,0-10.92,1.43l0,0-4.13,3.07.28.44c-3.94,5.19-5.14,13.81-2.61,24.22L273.55,163l5.65,9.15v23.1a26.81,26.81,0,0,0,8.38,3.31,16.41,16.41,0,0,0,7.86-.14l.43.69s4-2.87,4.45-3.28l.61-.45,0-.07C306,190.45,307.8,181.07,305,169.45Z" transform="translate(-188.94 -54.62)"/><path class="cls-167" d="M276,166.57l-25.78-5.27c-4.62-19,3.17-32.05,17.4-29.13s29.52,20.67,34.15,39.67-3.17,32-17.4,29.14a26.66,26.66,0,0,1-8.37-3.31Z" transform="translate(-188.94 -54.62)"/><path class="cls-168" d="M302,171.63c-4.62-19-19.91-36.77-34.14-39.68a17.3,17.3,0,0,0-6.54-.16,18,18,0,0,1,5.6.29c14.24,2.92,29.52,20.68,34.15,39.68,3.85,15.85-.92,27.54-10.86,29.31C300.77,199.88,306,188,302,171.63Z" transform="translate(-188.94 -54.62)"/><path class="cls-118" d="M352.76,246.68c1,.12,1.75-.6,1.75-2v-1.31h0c.4.24.74.05.74-.42v-.46l-7.05-4.07v.46a1.64,1.64,0,0,0,.74,1.28h0v1.32a6.09,6.09,0,0,0,1.75,4,1.15,1.15,0,0,1,.32.75c0,.24-.12.39-.32.36-1-.12-1.75.6-1.75,2v1.27h0c-.41-.23-.74,0-.74.43v.46l7.05,4.07v-.46a1.65,1.65,0,0,0-.74-1.28h0v-1.27a6.16,6.16,0,0,0-1.75-4,1.16,1.16,0,0,1-.33-.75C352.43,246.8,352.56,246.65,352.76,246.68Zm-.25,1.68a4.6,4.6,0,0,1,1.33,3v1.27l-4.22-2.44v-1.27c0-1,.53-1.57,1.34-1.47a.58.58,0,0,0,.57-.24.52.52,0,0,0,.2.26.14.14,0,0,0,.2,0A2.82,2.82,0,0,0,352.51,248.36Zm-2.84-5.93a3.15,3.15,0,0,1-.05-.52V240.6l4.22,2.43v1.32a2.16,2.16,0,0,1,0,.46Zm2.06,5.72c.12.07.22,0,.22-.12a.49.49,0,0,0-.22-.38c-.12-.07-.21,0-.21.13A.48.48,0,0,0,351.73,248.15Zm0,1c.19.11.34,0,.34-.19a.75.75,0,0,0-.34-.59c-.18-.11-.34,0-.34.2A.77.77,0,0,0,351.73,249.15Zm0,.29c-.24-.14-.44,0-.44.25a1,1,0,0,0,.44.76c.25.14.44,0,.44-.25A1,1,0,0,0,351.73,249.44Z" transform="translate(-188.94 -54.62)"/><path class="cls-118" d="M353.09,230.23l-2.84.07c-.26,0-.58-.43-.52-.74l.54-3.31a.68.68,0,0,0-.11-.43l-2.29-3.89c-.22-.37-.1-.72.2-.6l3.17,1.31c.12,0,.22,0,.27-.07l1.42-2.48c.13-.24.52,0,.65.37l1.42,4.12a.85.85,0,0,0,.28.39l3.17,2.35c.29.23.41.72.2.83l-2.3,1.24a.31.31,0,0,0-.1.31l.54,3.94c0,.37-.26.45-.53.13l-2.83-3.34A.5.5,0,0,0,353.09,230.23Z" transform="translate(-188.94 -54.62)"/></g></g></svg>